<svg width="132" height="44" viewBox="0 0 132 44" fill="none" xmlns="http://www.w3.org/2000/svg">
<g id="01">
<g id="Group">
<path id="Vector" d="M11.6337 0.976532V1.1621L10.8629 1.34767V9.5698L11.6337 9.75537V9.94094H7.97946V9.75537L8.7503 9.5698V2.56101L5.7241 10.0694H5.33866L1.41317 2.56101V9.36996L2.44093 9.75537V9.94094H0V9.75537L1.02777 9.36996V1.34767L0.256931 1.1621V0.976532H1.85567C2.09834 0.976532 2.31246 1.00508 2.48376 1.06218C2.65505 1.11928 2.82637 1.19065 2.95484 1.29057C3.09758 1.39049 3.21178 1.50469 3.3117 1.63316C3.41162 1.76163 3.49728 1.91865 3.58292 2.07567L6.38072 7.42862L8.5219 2.07567C8.59327 1.8901 8.66466 1.73308 8.76459 1.60461C8.85023 1.47614 8.9644 1.36195 9.09287 1.26202C9.22134 1.1621 9.37839 1.09073 9.56396 1.0479C9.74953 1.00508 9.9779 0.976532 10.2634 0.976532H11.6337Z" fill="#292F36"/>
<path id="Vector_2" d="M16.2015 3.36047C16.7297 3.36047 17.215 3.43185 17.629 3.58887C18.043 3.74589 18.3998 3.97428 18.6996 4.25977C18.9994 4.55953 19.2135 4.9164 19.3705 5.33036C19.5275 5.74432 19.5989 6.22965 19.5989 6.75781C19.5989 7.28597 19.5275 7.7713 19.3705 8.18527C19.2135 8.59923 18.9851 8.95609 18.6996 9.25586C18.3998 9.55562 18.043 9.76974 17.629 9.92676C17.215 10.0838 16.7297 10.1552 16.2015 10.1552C15.6734 10.1552 15.1881 10.0838 14.7741 9.92676C14.3601 9.76974 14.0033 9.54135 13.7035 9.25586C13.4037 8.95609 13.1896 8.59923 13.0326 8.18527C12.8756 7.7713 12.8042 7.28597 12.8042 6.75781C12.8042 6.22965 12.8756 5.74432 13.0326 5.33036C13.1896 4.9164 13.418 4.55953 13.7035 4.25977C14.0033 3.96 14.3601 3.74589 14.7741 3.58887C15.1881 3.43185 15.6591 3.36047 16.2015 3.36047ZM16.2015 9.91249C16.3443 9.91249 16.487 9.86966 16.6441 9.76974C16.7868 9.66982 16.9153 9.5128 17.0294 9.27013C17.1436 9.02746 17.2436 8.71342 17.315 8.31374C17.3863 7.89978 17.4291 7.38589 17.4291 6.77209C17.4291 6.14401 17.3863 5.63012 17.315 5.23044C17.2436 4.83075 17.1436 4.50244 17.0294 4.27404C16.9153 4.04565 16.7868 3.87436 16.6441 3.77444C16.5013 3.67451 16.3586 3.63169 16.2015 3.63169C16.0588 3.63169 15.9161 3.67451 15.759 3.77444C15.6163 3.87436 15.4878 4.03138 15.3736 4.27404C15.2594 4.51671 15.1595 4.83075 15.0881 5.23044C15.0168 5.6444 14.9739 6.15828 14.9739 6.77209C14.9739 7.40017 15.0168 7.91405 15.0881 8.31374C15.1595 8.71342 15.2594 9.04174 15.3736 9.27013C15.4878 9.49852 15.6163 9.66982 15.759 9.76974C15.9018 9.85539 16.0445 9.91249 16.2015 9.91249Z" fill="#292F36"/>
<path id="Vector_3" d="M25.8369 0.976562C26.6078 0.976562 26.9932 1.36197 26.9932 2.1328V9.58411L27.764 9.76968V9.95525H26.6078C26.2937 9.95525 26.051 9.91242 25.8655 9.8125C25.6799 9.71258 25.5229 9.59838 25.423 9.48419C25.2945 9.34144 25.1946 9.17015 25.1375 8.99885C25.0233 9.22725 24.8805 9.41281 24.7092 9.58411C24.5665 9.72685 24.3666 9.85532 24.124 9.98379C23.8813 10.1123 23.5958 10.1694 23.2675 10.1694C22.8964 10.1694 22.5538 10.098 22.2397 9.95525C21.9114 9.8125 21.6402 9.59838 21.4118 9.31289C21.1834 9.0274 20.9836 8.67054 20.8551 8.25658C20.7124 7.82834 20.6553 7.343 20.6553 6.77202C20.6553 6.20104 20.7267 5.71571 20.8551 5.28747C20.9979 4.85924 21.1834 4.51665 21.4404 4.23116C21.683 3.94567 21.9828 3.73155 22.3254 3.5888C22.668 3.44606 23.0534 3.37468 23.4816 3.37468C23.71 3.37468 23.9099 3.40323 24.0954 3.44606C24.281 3.50315 24.438 3.56025 24.5665 3.63163C24.7235 3.703 24.852 3.78865 24.9662 3.88857V1.39053L24.1954 1.20495V1.01939H25.8369V0.976562ZM24.9376 4.2597C24.8377 4.15978 24.7521 4.07414 24.6379 4.00277C24.538 3.93139 24.438 3.87429 24.3238 3.81719C24.2096 3.7601 24.0954 3.74582 23.967 3.74582C23.81 3.74582 23.6529 3.78865 23.5102 3.87429C23.3674 3.95994 23.2532 4.10269 23.139 4.3168C23.0391 4.53092 22.9535 4.84496 22.8964 5.23037C22.8393 5.63006 22.8107 6.12967 22.8107 6.75775C22.8107 7.37155 22.8393 7.85689 22.8964 8.2423C22.9535 8.62771 23.0249 8.92748 23.1248 9.1416C23.2104 9.35571 23.3104 9.51274 23.4388 9.58411C23.553 9.65548 23.6672 9.6983 23.7814 9.6983C23.9812 9.6983 24.1525 9.64121 24.2953 9.54128C24.438 9.44136 24.5522 9.31289 24.6521 9.18442C24.7663 9.0274 24.8663 8.8561 24.9519 8.67054V4.2597H24.9376Z" fill="#292F36"/>
<path id="Vector_4" d="M32.0606 10.1694C30.9615 10.1694 30.105 9.86967 29.5055 9.27014C28.8917 8.67061 28.5919 7.82841 28.5919 6.77209C28.5919 6.24394 28.6633 5.7586 28.8203 5.34464C28.9773 4.93068 29.1915 4.57382 29.4627 4.27405C29.7339 3.97429 30.0622 3.76017 30.4619 3.60315C30.8473 3.44613 31.2755 3.37476 31.7466 3.37476C32.2319 3.37476 32.6602 3.44613 33.0313 3.5746C33.4167 3.71734 33.7308 3.90291 34.002 4.13131C34.2732 4.3597 34.473 4.63092 34.6158 4.94496C34.7585 5.259 34.8299 5.58731 34.8299 5.94417C34.8299 6.05837 34.8299 6.17257 34.8156 6.25821C34.8014 6.34386 34.7871 6.42951 34.7728 6.50088C34.7443 6.58653 34.73 6.6579 34.7014 6.715C34.3303 6.78637 33.9306 6.85774 33.5024 6.90057C33.1455 6.95766 32.7315 7.00049 32.2605 7.02904C31.7894 7.05759 31.3041 7.08614 30.7902 7.08614C30.7902 7.61429 30.833 8.0568 30.9044 8.41367C30.9758 8.77053 31.09 9.05602 31.2184 9.25586C31.3612 9.46998 31.5182 9.61273 31.7038 9.69838C31.8893 9.78402 32.1035 9.82685 32.3176 9.82685C32.5745 9.82685 32.8172 9.78402 33.0456 9.6841C33.274 9.58418 33.4738 9.46998 33.6308 9.31296C33.8021 9.15594 33.9306 8.97037 34.0305 8.77053C34.1304 8.57069 34.1733 8.37084 34.1733 8.15673H34.4873C34.4873 8.41367 34.4302 8.65633 34.316 8.899C34.2018 9.14167 34.0305 9.35579 33.8164 9.54135C33.6023 9.72692 33.3453 9.86967 33.0456 9.98386C32.7601 10.1123 32.4318 10.1694 32.0606 10.1694ZM30.7759 6.75782C31.0614 6.75782 31.3184 6.75782 31.5468 6.74355C31.7752 6.72927 31.9607 6.715 32.1177 6.70072C32.3033 6.68645 32.4461 6.6579 32.5745 6.64362C32.5888 6.55798 32.6174 6.45806 32.6316 6.35813C32.6459 6.25821 32.6602 6.15829 32.6745 6.04409C32.6887 5.9299 32.6887 5.80143 32.6887 5.67296C32.6887 5.28754 32.6602 4.95923 32.6031 4.70229C32.546 4.44535 32.4746 4.23123 32.3747 4.05993C32.289 3.90291 32.1891 3.77444 32.0606 3.71734C31.9321 3.66025 31.8322 3.61742 31.718 3.61742C31.6038 3.61742 31.4897 3.66025 31.3755 3.74589C31.2613 3.83154 31.1614 3.98856 31.0614 4.20268C30.9758 4.43107 30.8901 4.74511 30.833 5.15907C30.7759 5.57303 30.7759 6.10119 30.7759 6.75782Z" fill="#292F36"/>
<path id="Vector_5" d="M40.2256 3.80293C39.9687 3.80293 39.7403 3.86003 39.5405 3.95995C39.3406 4.05987 39.1693 4.18834 39.0266 4.31681C38.8695 4.47383 38.7411 4.64513 38.6126 4.8307V9.58412L39.3834 9.76969V9.95526H35.7863V9.76969L36.5571 9.58412V3.9314L35.7863 3.74583V3.56026H36.9425C37.2423 3.56026 37.4849 3.61736 37.6847 3.71728C37.8703 3.81721 38.0273 3.9314 38.1415 4.0456C38.27 4.18834 38.37 4.34536 38.4271 4.51666C38.5555 4.33109 38.7125 4.1598 38.8981 4.00278C39.0551 3.8743 39.255 3.76011 39.4976 3.64591C39.7403 3.53172 40.0115 3.48889 40.3398 3.48889C40.7966 3.48889 41.1392 3.60309 41.3676 3.80293C41.596 4.01705 41.6959 4.31682 41.6959 4.70223C41.6959 4.98772 41.6103 5.23039 41.439 5.40168C41.2677 5.57297 41.025 5.65862 40.7395 5.65862C40.6681 5.65862 40.611 5.65862 40.5397 5.65862C40.4683 5.65862 40.4255 5.64435 40.3827 5.64435C40.3256 5.63007 40.2684 5.63007 40.2256 5.60152V3.80293Z" fill="#292F36"/>
<path id="Vector_6" d="M47.2201 5.4731C47.2201 5.18761 47.1915 4.93067 47.1344 4.71655C47.0773 4.50243 47.006 4.33113 46.9061 4.20266C46.8204 4.05992 46.7205 3.96 46.592 3.9029C46.4778 3.8458 46.3636 3.80298 46.2494 3.80298C46.0496 3.80298 45.8783 3.86008 45.7355 3.96C45.5928 4.05992 45.4643 4.18839 45.3787 4.31686C45.2645 4.47388 45.1788 4.64518 45.0932 4.83074V9.58416L45.864 9.76973V9.9553H42.2668V9.76973L43.0376 9.58416V3.93145L42.2668 3.74588V3.56031H43.4231C43.7228 3.56031 43.9655 3.61741 44.1653 3.71733C44.3509 3.81725 44.5079 3.93145 44.6221 4.04564C44.7506 4.18839 44.8505 4.34541 44.9076 4.5167C45.0218 4.30258 45.1646 4.10274 45.3359 3.93145C45.4786 3.7887 45.6784 3.66023 45.9068 3.53176C46.1352 3.40329 46.435 3.34619 46.7776 3.34619C47.1487 3.34619 47.4913 3.40329 47.7911 3.53176C48.1051 3.64596 48.362 3.81725 48.5762 4.00282C48.7903 4.20266 48.9616 4.41678 49.0901 4.67372C49.2185 4.93067 49.2756 5.18761 49.2756 5.45882V9.56989L50.0464 9.75546V9.94103H48.3763C47.6055 9.94103 47.2201 9.55561 47.2201 8.78479V5.4731Z" fill="#292F36"/>
<path id="Vector_7" d="M1.35608 18.9767V18.4486H11.2769V18.9767L9.19278 19.5049V30.2822H16.6726V19.5049L14.5886 18.9767V18.4486H24.5094V18.9767L22.4253 19.5049V41.7732L24.5094 42.3013V42.8295H14.5886V42.2871L16.6726 41.7589V31.1529H9.19278V41.7589L11.2769 42.2871V42.8152H1.35608V42.2871L3.44015 41.7589V19.4906L1.35608 18.9767Z" fill="#292F36"/>
<path id="Vector_8" d="M36.8426 24.8864C38.2843 24.8864 39.569 25.1005 40.7109 25.5145C41.8529 25.9285 42.8093 26.5423 43.6087 27.3416C44.408 28.141 45.0218 29.1117 45.4358 30.2536C45.8498 31.3956 46.0639 32.6803 46.0639 34.122C46.0639 35.5638 45.8498 36.8485 45.4358 37.9904C45.0218 39.1324 44.408 40.0888 43.6087 40.8882C42.8093 41.6875 41.8386 42.3013 40.7109 42.7153C39.569 43.1293 38.2843 43.3434 36.8426 43.3434C35.4008 43.3434 34.1161 43.1293 32.9742 42.7153C31.8322 42.3013 30.8758 41.6875 30.0764 40.8882C29.2771 40.0888 28.6633 39.1181 28.2493 37.9904C27.8353 36.8485 27.6212 35.5638 27.6212 34.122C27.6212 32.6803 27.8353 31.3956 28.2493 30.2536C28.6633 29.1117 29.2771 28.1553 30.0764 27.3416C30.8758 26.528 31.8465 25.9285 32.9742 25.5145C34.1161 25.1005 35.4008 24.8864 36.8426 24.8864ZM36.8426 42.6297C37.2422 42.6297 37.6277 42.5012 38.0274 42.2442C38.4271 41.9873 38.7696 41.5448 39.0837 40.9024C39.3977 40.2601 39.6547 39.3893 39.8545 38.2902C40.0543 37.1911 40.1543 35.7922 40.1543 34.0935C40.1543 32.3948 40.0543 30.9959 39.8545 29.8968C39.6547 28.7976 39.3977 27.9269 39.0837 27.2845C38.7696 26.6422 38.4128 26.1997 38.0274 25.9427C37.642 25.6858 37.2422 25.5573 36.8426 25.5573C36.4429 25.5573 36.0575 25.6858 35.6578 25.9427C35.2581 26.1997 34.9155 26.6422 34.6014 27.2845C34.2874 27.9269 34.0305 28.7976 33.8306 29.8968C33.6308 30.9959 33.5309 32.3948 33.5309 34.0935C33.5309 35.7922 33.6308 37.1911 33.8306 38.2902C34.0305 39.3893 34.2874 40.2601 34.6014 40.9024C34.9155 41.5448 35.2724 41.9873 35.6578 42.2442C36.0575 42.5012 36.4429 42.6297 36.8426 42.6297Z" fill="#292F36"/>
<path id="Vector_9" d="M72.1435 30.6247C72.1435 29.7968 72.0721 29.0831 71.9294 28.5264C71.7866 27.9697 71.6153 27.4986 71.3869 27.1417C71.1585 26.7849 70.9158 26.5279 70.6589 26.3566C70.3877 26.1996 70.1308 26.114 69.8738 26.114C69.4313 26.114 69.0459 26.2567 68.7033 26.5422C68.3607 26.8277 68.0752 27.156 67.8183 27.4986C67.5471 27.9126 67.2901 28.3836 67.0903 28.8832V41.7589L69.1886 42.287V42.8152H59.4534V42.287L61.5375 41.7589V30.6247C61.5375 29.7968 61.4661 29.0831 61.3233 28.5264C61.1806 27.9697 61.0093 27.4986 60.7809 27.1417C60.5525 26.7849 60.3099 26.5279 60.0529 26.3566C59.7817 26.1996 59.5248 26.114 59.2678 26.114C58.8253 26.114 58.4399 26.2567 58.0973 26.5422C57.7547 26.8277 57.4692 27.156 57.2123 27.4986C56.9268 27.9126 56.6841 28.3836 56.4843 28.8832V41.7589L58.5684 42.287V42.8152H48.8331V42.287L50.9172 41.7589V26.4566L48.8331 25.9284V25.4003H51.9593C52.7729 25.4003 53.4438 25.543 53.9577 25.8142C54.4858 26.0854 54.8856 26.3995 55.1996 26.7135C55.5422 27.1132 55.7991 27.5414 55.9704 27.9982C56.2702 27.413 56.6413 26.8991 57.0838 26.428C57.4835 26.0283 57.9689 25.6715 58.5398 25.3432C59.1251 25.0148 59.8245 24.8578 60.6667 24.8578C62.0514 24.8578 63.2647 25.1719 64.2639 25.7857C65.2774 26.3995 66.0483 27.1988 66.5764 28.1695C66.8762 27.57 67.2473 27.0276 67.6898 26.5279C68.0895 26.114 68.5748 25.7286 69.1458 25.386C69.7311 25.0434 70.4305 24.8578 71.2727 24.8578C72.2291 24.8578 73.0856 25.0148 73.885 25.3146C74.6701 25.6144 75.3552 26.0283 75.9262 26.5565C76.4972 27.0846 76.9397 27.6842 77.2537 28.3836C77.5678 29.0831 77.7248 29.8254 77.7248 30.6105V41.7446L79.8089 42.2728V42.8009H75.2838C73.1998 42.8009 72.1577 41.7589 72.1577 39.6748V30.6247H72.1435Z" fill="#292F36"/>
<path id="Vector_10" d="M91.2856 43.3291C88.3165 43.3291 86.004 42.5154 84.3625 40.8739C82.7209 39.2323 81.8929 36.9912 81.8929 34.1077C81.8929 32.666 82.1071 31.3813 82.521 30.2393C82.935 29.0974 83.5202 28.141 84.2625 27.3273C85.0048 26.5279 85.9041 25.9141 86.9604 25.5002C88.0167 25.0862 89.173 24.8721 90.4148 24.8721C91.7138 24.8721 92.8844 25.0577 93.9121 25.4288C94.9399 25.7999 95.8249 26.2996 96.5386 26.9276C97.2524 27.5557 97.8091 28.298 98.1945 29.1402C98.5799 29.9824 98.7655 30.8817 98.7655 31.8381C98.7655 32.1664 98.7512 32.4519 98.7083 32.6945C98.6655 32.9372 98.637 33.1513 98.5799 33.3369C98.5085 33.5653 98.4514 33.7651 98.4086 33.9222C97.3808 34.1363 96.3103 34.3076 95.1683 34.4503C94.1976 34.5931 93.0699 34.7073 91.7995 34.8214C90.529 34.9214 89.1873 34.9785 87.8026 34.9785C87.8026 36.4202 87.9025 37.6193 88.1167 38.5757C88.3308 39.532 88.6163 40.3029 88.9874 40.8739C89.3585 41.4448 89.801 41.8445 90.3149 42.0872C90.8288 42.3299 91.3855 42.4583 91.9851 42.4583C92.6845 42.4583 93.3411 42.3299 93.9549 42.0729C94.5687 41.816 95.0969 41.4734 95.5537 41.0451C96.0105 40.6169 96.3673 40.1316 96.6386 39.5891C96.9098 39.0467 97.0382 38.49 97.0382 37.9333H97.909C97.909 38.6327 97.752 39.3037 97.4379 39.946C97.1239 40.6026 96.6814 41.1736 96.0961 41.6732C95.5109 42.1728 94.8257 42.5725 94.0121 42.8723C93.1841 43.1721 92.2706 43.3291 91.2856 43.3291ZM87.8026 34.1077C88.5877 34.1077 89.2872 34.0935 89.8867 34.0506C90.4862 34.0078 91.0001 33.9793 91.4141 33.9364C91.8994 33.8936 92.3134 33.8365 92.6702 33.7651C92.7131 33.5367 92.7702 33.2798 92.8415 32.9943C92.8844 32.7374 92.9272 32.4519 92.9557 32.1378C92.9843 31.8238 93.0128 31.4955 93.0128 31.1529C93.0128 30.1109 92.9272 29.2401 92.7701 28.5264C92.6131 27.8127 92.399 27.2417 92.1563 26.7992C91.9137 26.3567 91.6282 26.0426 91.3284 25.857C91.0144 25.6715 90.7003 25.5716 90.4006 25.5716C90.1008 25.5716 89.7868 25.6857 89.4727 25.8999C89.1587 26.1283 88.8875 26.5422 88.6448 27.156C88.4021 27.7698 88.2023 28.6406 88.031 29.754C87.8883 30.8674 87.8026 32.3234 87.8026 34.1077Z" fill="#292F36"/>
</g>
<g id="Group_2">
<path id="Vector_11" d="M115.852 42.4583V28.3408L103.376 18.4628V42.4583H115.852Z" fill="#292F36"/>
</g>
<g id="Group_3">
<path id="Vector_12" d="M131.283 42.4583V28.3408L119.007 18.4628V42.4583H131.283Z" fill="#292F36"/>
</g>
</g>
</svg>
