<svg width="103" height="103" viewBox="0 0 103 103" fill="none" xmlns="http://www.w3.org/2000/svg">
<g id="02">
<g id="Group">
<path id="Vector" d="M51.4429 101.606C79.3036 101.606 101.889 79.0206 101.889 51.1599C101.889 23.2993 79.3036 0.713715 51.4429 0.713715C23.5822 0.713715 0.996704 23.2993 0.996704 51.1599C0.996704 79.0206 23.5822 101.606 51.4429 101.606Z" fill="white"/>
<path id="Vector_2" d="M51.4429 102.32C23.2364 102.32 0.282959 79.3664 0.282959 51.1599C0.282959 22.9535 23.2364 0 51.4429 0C79.6494 0 102.603 22.9535 102.603 51.1599C102.603 79.3664 79.6494 102.32 51.4429 102.32ZM51.4429 1.42745C24.0215 1.42745 1.71041 23.7386 1.71041 51.1599C1.71041 78.5813 24.0215 100.892 51.4429 100.892C78.8643 100.892 101.175 78.5813 101.175 51.1599C101.175 23.7386 78.8643 1.42745 51.4429 1.42745Z" fill="#292F36"/>
</g>
<g id="Group_2">
<path id="Vector_3" d="M58.6373 5.83833C58.9799 5.86688 59.2797 5.88115 59.5223 5.88115L59.4938 6.10955C59.0941 6.16664 58.7515 6.46641 58.4803 7.03739L55.0829 13.8321L54.983 13.8178L54.8974 13.8035L52.7419 6.22374C52.5992 5.72413 52.3565 5.45292 52.0139 5.41009L52.0425 5.1817C52.3565 5.2388 52.7705 5.28162 53.2843 5.33872C53.9553 5.39582 54.4549 5.43864 54.7832 5.43864L54.7546 5.66704C54.4549 5.65276 54.2407 5.66704 54.1123 5.70986C53.9838 5.75268 53.9124 5.86688 53.8982 6.00962C53.8839 6.1381 53.9124 6.32366 53.9838 6.56633L55.5683 12.3618L57.9236 7.62265C58.1234 7.23723 58.2233 6.92319 58.2519 6.6948C58.2804 6.45214 58.2091 6.26657 58.052 6.1381C57.895 6.00962 57.6381 5.93825 57.2955 5.89543L57.324 5.66704C57.738 5.73841 58.1805 5.79551 58.6373 5.83833Z" fill="#292F36"/>
<path id="Vector_4" d="M68.2298 8.85028C68.0871 8.85028 67.9729 8.90737 67.8873 9.02157C67.8016 9.13577 67.7017 9.32134 67.6018 9.59255L65.5605 15.0169C65.4606 15.2881 65.4035 15.5022 65.4035 15.645C65.4035 15.7877 65.4463 15.9019 65.5462 15.9875C65.6462 16.0732 65.8317 16.1731 66.0887 16.2873L66.003 16.5014C65.6747 16.3587 65.2179 16.1731 64.6327 15.9447C64.0046 15.7021 63.5335 15.545 63.2195 15.4451L63.3051 15.231C63.5763 15.3166 63.7762 15.3595 63.9047 15.3595C64.0331 15.3595 64.1616 15.3024 64.2473 15.1882C64.3329 15.074 64.4328 14.8884 64.5327 14.6172L66.574 9.19286C66.6739 8.92165 66.731 8.70753 66.731 8.56479C66.731 8.42204 66.6882 8.30784 66.5883 8.2222C66.4884 8.13655 66.3028 8.03663 66.0458 7.92243L66.1315 7.70831C66.4313 7.83678 66.888 8.02235 67.5161 8.26502C68.1014 8.49341 68.5724 8.65043 68.915 8.75035L68.8294 8.96447C68.5724 8.87883 68.3726 8.836 68.2298 8.85028Z" fill="#292F36"/>
<path id="Vector_5" d="M80.9341 16.4015C80.7914 16.3729 80.6486 16.4157 80.5201 16.5014C80.3917 16.587 80.2347 16.7583 80.0634 17.001L75.9238 22.6109L75.7096 22.4539L76.2663 13.4324L72.5978 18.3999C72.4265 18.6426 72.3123 18.8424 72.2552 18.9994C72.1981 19.1565 72.2266 19.2992 72.298 19.4419C72.3694 19.5847 72.5407 19.7417 72.7834 19.9416L72.6406 20.1271C72.4265 19.9416 72.1124 19.6989 71.6985 19.3848C71.3273 19.1136 71.0276 18.8995 70.7992 18.771L70.9419 18.5855C71.1703 18.7425 71.3559 18.8281 71.4986 18.8424C71.6414 18.871 71.7841 18.8281 71.9126 18.7425C72.0411 18.6426 72.1981 18.4856 72.3694 18.2429L75.7382 13.675C75.9095 13.4324 76.0237 13.2468 76.0665 13.1183C76.1093 12.9899 76.095 12.8614 76.0237 12.7472C75.9523 12.633 75.8096 12.4902 75.5812 12.3047L75.7239 12.1191C75.9095 12.2904 76.195 12.5188 76.5804 12.79C76.8659 13.0041 77.1085 13.1754 77.3369 13.3039L76.8801 20.8694L79.8492 16.844C80.0205 16.6013 80.149 16.4015 80.1918 16.2445C80.2347 16.0874 80.2204 15.9447 80.149 15.8019C80.0776 15.6592 79.9063 15.4879 79.6637 15.3023L79.8064 15.1168C80.0205 15.3023 80.3346 15.545 80.7485 15.859C81.1197 16.1303 81.4194 16.3444 81.6478 16.4728L81.5051 16.6584C81.2624 16.5157 81.0769 16.4157 80.9341 16.4015Z" fill="#292F36"/>
<path id="Vector_6" d="M85.7161 22.8392C86.0873 22.568 86.4727 22.2683 86.8866 21.8971C87.2435 22.4396 87.8716 23.3389 88.7709 24.6093C89.6702 25.8654 90.3125 26.7505 90.6979 27.2644C90.2126 27.5498 89.7986 27.8068 89.4275 28.0637C89.1135 28.2921 88.8565 28.492 88.6709 28.649L88.5139 28.4349C88.9707 28.0352 89.2848 27.7069 89.4703 27.4642C89.6559 27.2215 89.7273 26.9646 89.713 26.6934C89.6987 26.4222 89.5274 26.0938 89.2562 25.6942L88.8851 25.1803L83.475 29.0344C83.2181 29.22 83.0325 29.3913 82.9469 29.5197C82.8612 29.6482 82.8327 29.8052 82.8898 29.9765C82.9326 30.1335 83.0611 30.3619 83.2466 30.6474L83.0611 30.7902C82.8469 30.4476 82.5186 29.9622 82.0904 29.377C81.6336 28.7346 81.291 28.2778 81.0626 27.9924L81.2482 27.8496C81.4623 28.1208 81.6336 28.3064 81.7763 28.4063C81.9191 28.5062 82.0618 28.5348 82.2189 28.492C82.3759 28.4491 82.59 28.3349 82.8469 28.1494L88.257 24.2952L87.8858 23.7814C87.6004 23.3817 87.3434 23.139 87.1007 23.0248C86.8581 22.9106 86.5869 22.8963 86.3014 22.9963C86.0159 23.0962 85.6019 23.2818 85.0738 23.5815L84.9167 23.3674C85.1309 23.2532 85.3878 23.0819 85.7161 22.8392Z" fill="#292F36"/>
<path id="Vector_7" d="M88.4568 42.6524L88.2284 42.7237C88.1428 42.4097 88.0286 42.01 87.8573 41.5247C87.6432 40.8966 87.4719 40.4255 87.3434 40.1115L87.5718 40.0401C87.6717 40.3113 87.7859 40.5112 87.8716 40.6111C87.9715 40.711 88.1 40.7396 88.2427 40.6825C88.3712 40.6396 88.5282 40.5397 88.7138 40.3827L90.2982 39.0837L89.3989 36.4144L88.0714 36.3573C87.6432 36.3287 87.3149 36.3573 87.0865 36.4429C86.8581 36.5286 86.7153 36.657 86.6582 36.8426C86.6154 37.0282 86.644 37.2994 86.7439 37.6277L86.5155 37.6991C86.4013 37.2709 86.2585 36.8426 86.1158 36.4144C86.0016 36.0861 85.9017 35.8149 85.8018 35.6007L86.0302 35.5294C86.23 35.8719 86.6582 36.0575 87.2863 36.0718L94.8804 36.4144L94.9375 36.5857L88.8851 41.6246C88.5139 41.9814 88.3712 42.3098 88.4568 42.6524ZM93.4101 36.5857L89.6702 36.4287L90.5124 38.941L93.4101 36.5857Z" fill="#292F36"/>
<path id="Vector_8" d="M89.4988 53.5724C89.6416 53.5153 89.7129 53.444 89.7129 53.344C89.7129 53.2869 89.6987 53.2441 89.6701 53.2013C89.6416 53.1585 89.5845 53.0728 89.4988 52.9586C89.2847 52.6874 89.1277 52.4019 89.0135 52.1164C88.8993 51.8309 88.8422 51.5026 88.8422 51.1458C88.8279 50.3464 88.9849 49.6612 89.299 49.0759C89.6273 48.4907 90.0841 48.0482 90.7122 47.7341C91.326 47.4201 92.0683 47.2631 92.939 47.2488C93.8383 47.2345 94.6234 47.3773 95.2943 47.6913C95.9652 48.0054 96.4934 48.4336 96.8645 49.0046C97.2356 49.5756 97.4355 50.2179 97.4355 50.9316C97.4355 51.2457 97.4069 51.5312 97.3498 51.7738C97.2927 52.0165 97.2071 52.2306 97.1072 52.4162C97.0072 52.6018 96.8788 52.8159 96.7075 53.0443C96.6361 53.1442 96.5933 53.2298 96.5933 53.2869C96.5933 53.4297 96.8359 53.5296 97.307 53.5724V53.8436C96.8074 53.8151 95.9081 53.8151 94.6234 53.8436V53.5724C95.0373 53.5011 95.3799 53.4154 95.6512 53.3298C95.9224 53.2441 96.1508 53.1156 96.3506 52.9586C96.6218 52.7302 96.8502 52.4305 97.0072 52.0593C97.1643 51.6882 97.2356 51.317 97.2356 50.9174C97.2213 50.4035 97.0501 49.961 96.7075 49.5756C96.3649 49.1901 95.8795 48.9047 95.2657 48.6905C94.6377 48.4907 93.9239 48.3908 93.096 48.405C92.1539 48.4193 91.3973 48.5335 90.7978 48.7476C90.1983 48.9618 89.77 49.2758 89.4846 49.6898C89.1991 50.1037 89.0706 50.6319 89.0849 51.2742C89.0991 51.7453 89.2276 52.145 89.4703 52.4876C89.5702 52.6303 89.6558 52.716 89.7558 52.7588C89.8414 52.8016 89.9699 52.8159 90.1269 52.8159L91.2546 52.8016C91.5829 52.8016 91.8113 52.7588 91.9683 52.7017C92.1111 52.6446 92.2253 52.5304 92.2681 52.3591C92.3252 52.2021 92.3537 51.9451 92.3537 51.6025H92.5821C92.5679 51.988 92.5536 52.5304 92.5679 53.2584C92.5821 53.8008 92.5964 54.2148 92.625 54.4717H92.3966C92.3823 54.2862 92.3395 54.1577 92.2966 54.0863C92.2538 54.0149 92.1539 53.9578 92.0254 53.9293C91.8969 53.9007 91.6828 53.8865 91.3831 53.9007L89.0706 53.9436V53.7152C89.1991 53.6581 89.3561 53.6295 89.4988 53.5724Z" fill="#292F36"/>
<path id="Vector_9" d="M87.8001 65.72C87.3862 65.5915 86.9008 65.463 86.3441 65.3488C86.5297 64.8492 86.8009 64.007 87.1863 62.8079C87.6431 61.3805 87.9714 60.2956 88.1713 59.5676L88.3996 59.639C88.3283 59.9102 88.2997 60.1101 88.2997 60.2528C88.314 60.3955 88.3711 60.4955 88.4853 60.5811C88.5995 60.6668 88.7993 60.7524 89.0706 60.8381L94.5948 62.5796C94.8803 62.6652 95.0801 62.708 95.2229 62.708C95.3656 62.708 95.4798 62.6509 95.5655 62.5367C95.6511 62.4225 95.7368 62.237 95.8367 61.98L96.0651 62.0514C95.8081 62.7794 95.4655 63.85 95.0088 65.2774C94.6662 66.3623 94.4235 67.1474 94.3093 67.6185C93.8382 67.4186 93.41 67.2473 93.0103 67.1331C92.7248 67.0475 92.4822 66.9761 92.3109 66.9476L92.3965 66.6906C92.8961 66.7905 93.2815 66.8334 93.5385 66.8334C93.7954 66.8334 94.0095 66.7477 94.1808 66.5764C94.3521 66.4194 94.4949 66.1339 94.6233 65.7485L94.9088 64.8207C94.9945 64.5494 95.0373 64.3496 95.023 64.2211C95.0088 64.0927 94.9659 63.9785 94.8517 63.8928C94.7375 63.8072 94.552 63.7215 94.2665 63.6359L91.64 62.8079L91.4116 63.5502C91.2974 63.9214 91.3259 64.2069 91.5115 64.4067C91.6971 64.6065 91.8969 64.7493 92.1253 64.8492C92.3537 64.9491 92.4964 65.0205 92.5535 65.049L92.4679 65.306C92.111 65.1632 91.7684 65.0348 91.4258 64.9349L90.8977 64.7778C90.5266 64.6636 89.9841 64.5066 89.2989 64.3496L89.3846 64.0927C89.4417 64.1069 89.6273 64.1355 89.9413 64.2069C90.2553 64.2639 90.5266 64.2354 90.7407 64.1212C90.9548 64.007 91.0975 63.7929 91.1975 63.4931L91.4258 62.7508L88.7422 61.9087C88.4567 61.823 88.2569 61.7802 88.1142 61.7802C87.9714 61.7802 87.8572 61.8373 87.7858 61.9515C87.7002 62.0657 87.6145 62.2512 87.5289 62.5225L87.272 63.3361C87.1292 63.8072 87.0721 64.1783 87.1292 64.4495C87.172 64.735 87.3148 64.9634 87.5574 65.1632C87.8001 65.3488 88.1713 65.5629 88.6709 65.7913L88.5852 66.0483C88.4139 65.9198 88.1427 65.8342 87.8001 65.72Z" fill="#292F36"/>
<path id="Vector_10" d="M83.7319 83.2349C83.789 83.1064 83.7747 82.9779 83.7176 82.8495C83.6605 82.721 83.5178 82.564 83.3037 82.3499L79.1069 78.3387C78.8928 78.1389 78.7215 78.0104 78.5931 77.9533C78.4646 77.8962 78.3361 77.8962 78.2077 77.9533C78.0792 78.0104 77.9222 78.1389 77.7223 78.3387L77.551 78.1817C77.8222 77.939 78.1648 77.5822 78.6073 77.1397C79.0641 76.6543 79.4067 76.2832 79.6208 76.0405L79.7921 76.1975C79.6066 76.4117 79.4924 76.5829 79.4353 76.6971C79.3782 76.8256 79.3924 76.9541 79.4495 77.0826C79.5066 77.211 79.6494 77.368 79.8635 77.5822L84.0602 81.5933C84.2743 81.7931 84.4456 81.9216 84.5741 81.9787C84.7026 82.0358 84.831 82.0358 84.9595 81.9787C85.088 81.9216 85.245 81.7931 85.4448 81.5933L85.6161 81.7503C85.3735 81.9644 85.0166 82.3213 84.5598 82.8066C84.1173 83.2634 83.789 83.6346 83.5606 83.9058L83.3893 83.7488C83.5606 83.5346 83.6748 83.3633 83.7319 83.2349Z" fill="#292F36"/>
<path id="Vector_11" d="M71.8412 91.9423C71.9269 91.8138 71.9412 91.6854 71.9126 91.5283C71.8841 91.3713 71.7841 91.1715 71.6271 90.9003L68.087 84.8907L68.3154 84.7479L76.3948 88.7876L73.2687 83.4775C73.1117 83.2206 72.9832 83.035 72.8547 82.9351C72.7263 82.8351 72.5835 82.7923 72.4265 82.8066C72.2695 82.8209 72.0554 82.9065 71.7841 83.0493L71.6557 82.8494C71.9126 82.7352 72.2552 82.5354 72.6977 82.2784C73.0974 82.0358 73.3972 81.8502 73.6113 81.6932L73.7255 81.893C73.4971 82.0358 73.3401 82.1785 73.2687 82.307C73.183 82.4355 73.1688 82.5639 73.1973 82.7209C73.2259 82.878 73.3258 83.0778 73.4828 83.349L76.3663 88.2452C76.509 88.5021 76.6375 88.6734 76.7517 88.7591C76.8659 88.8447 76.9801 88.8875 77.1228 88.859C77.2513 88.8304 77.4511 88.7591 77.6938 88.6306L77.808 88.8304C77.5796 88.9446 77.2656 89.1159 76.8516 89.3586C76.5518 89.5299 76.2949 89.7012 76.0808 89.8439L69.3004 86.4609L71.8412 90.7718C71.9983 91.0287 72.1267 91.2143 72.2552 91.3142C72.3694 91.4141 72.5121 91.457 72.6834 91.4427C72.8547 91.4284 73.0688 91.3428 73.3401 91.2L73.4543 91.3999C73.1973 91.5141 72.8547 91.7139 72.4122 91.9708C72.0125 92.2135 71.7128 92.3991 71.4986 92.5561L71.3845 92.3563C71.5986 92.1992 71.7556 92.0565 71.8412 91.9423Z" fill="#292F36"/>
<path id="Vector_12" d="M63.9903 93.8124C64.0902 94.2549 64.2187 94.7402 64.39 95.2541C63.7476 95.3683 62.677 95.5967 61.1639 95.9107C59.6508 96.239 58.5945 96.4817 57.9664 96.6387C57.895 96.082 57.8237 95.5967 57.7237 95.1542C57.6381 94.7688 57.5667 94.4547 57.4811 94.2263L57.738 94.1692C57.9236 94.7545 58.0949 95.1684 58.2519 95.4397C58.4089 95.7109 58.6088 95.8822 58.8657 95.9678C59.1227 96.0535 59.4938 96.0392 59.9649 95.9393L60.5787 95.8108L59.1797 89.3159C59.1084 89.0018 59.037 88.7734 58.9371 88.645C58.8372 88.5165 58.723 88.4309 58.5517 88.4166C58.3804 88.388 58.1234 88.4166 57.7808 88.4737L57.738 88.2453C58.1377 88.1882 58.7087 88.074 59.4224 87.917C60.179 87.7457 60.7499 87.6172 61.1068 87.5173L61.1496 87.7457C60.807 87.8313 60.5787 87.917 60.4359 88.0026C60.2932 88.0883 60.2075 88.2167 60.179 88.3738C60.1504 88.5308 60.1647 88.7734 60.2361 89.0875L61.635 95.5824L62.2488 95.4539C62.7198 95.354 63.0624 95.2113 63.2623 95.0257C63.4621 94.8401 63.5763 94.5975 63.6049 94.2977C63.6334 93.9979 63.6191 93.5411 63.5478 92.9416L63.8047 92.8845C63.8475 93.1129 63.9046 93.4269 63.9903 93.8124Z" fill="#292F36"/>
<path id="Vector_13" d="M45.048 89.8011C45.0908 89.3586 45.1051 88.859 45.1051 88.3023C45.6333 88.3736 46.5183 88.4593 47.7744 88.5735C49.259 88.702 50.3867 88.8019 51.1575 88.8447L51.1432 89.0731C50.8577 89.0588 50.6579 89.0731 50.5294 89.1159C50.4009 89.1587 50.301 89.2301 50.2439 89.3586C50.1868 89.4871 50.144 89.7012 50.1155 89.9867L49.6016 95.7679C49.573 96.0533 49.5873 96.2675 49.6158 96.4102C49.6444 96.553 49.73 96.6529 49.8585 96.71C49.987 96.7671 50.1868 96.8242 50.458 96.8527L50.4438 97.0811C49.6872 96.9955 48.5595 96.8813 47.075 96.7528C45.933 96.6529 45.1194 96.5958 44.634 96.5672C44.734 96.0676 44.8053 95.6108 44.8339 95.1969C44.8624 94.8971 44.8767 94.6544 44.8624 94.4689L45.1336 94.4974C45.1479 95.0113 45.1765 95.3824 45.2478 95.6394C45.3049 95.8963 45.4334 96.0819 45.6333 96.2104C45.8188 96.3388 46.1329 96.4245 46.5325 96.453L47.5032 96.5387C47.7887 96.5672 47.9885 96.553 48.117 96.5244C48.2455 96.4959 48.3454 96.4102 48.4025 96.2817C48.4596 96.1533 48.5024 95.9392 48.531 95.6537L48.7737 92.9129L48.0028 92.8416C47.6174 92.813 47.3462 92.8987 47.1892 93.1271C47.0464 93.3555 46.9322 93.5839 46.8894 93.8265C46.8323 94.0692 46.8038 94.2262 46.7895 94.2976L46.5183 94.269C46.5754 93.8836 46.6182 93.5268 46.661 93.1699L46.7038 92.6132C46.7324 92.2135 46.7609 91.6711 46.7895 90.9573L47.0607 90.9859C47.0607 91.043 47.075 91.2286 47.075 91.5569C47.0893 91.8852 47.1606 92.1421 47.3319 92.3134C47.4889 92.499 47.7316 92.5989 48.0456 92.6275L48.8165 92.6988L49.0591 89.901C49.0877 89.6155 49.0734 89.4014 49.0449 89.2587C49.0163 89.1302 48.9307 89.0303 48.8022 88.9732C48.6737 88.9161 48.4739 88.8733 48.2027 88.8447L47.3462 88.7733C46.8609 88.7305 46.4897 88.7591 46.2185 88.8733C45.9616 88.9732 45.7617 89.173 45.619 89.4442C45.4762 89.7155 45.362 90.1294 45.2478 90.6718L44.9766 90.6433C44.9766 90.4292 45.0052 90.1437 45.048 89.8011Z" fill="#292F36"/>
<path id="Vector_14" d="M33.8138 84.5053C34.028 84.4625 34.2706 84.5053 34.5276 84.6195C34.8273 84.748 35.0272 84.9335 35.1414 85.1762C35.2556 85.4331 35.2698 85.79 35.1985 86.2611L34.9844 87.4316C34.913 87.8455 34.8702 88.1596 34.8559 88.4023C34.8416 88.6306 34.8987 88.8448 34.9986 89.0303C35.0986 89.2159 35.2841 89.3586 35.5553 89.4728L36.5831 89.9011L37.6251 87.4173C37.7393 87.1461 37.7964 86.9462 37.8107 86.8035C37.825 86.6608 37.7679 86.5466 37.668 86.4466C37.568 86.3467 37.3968 86.2468 37.1398 86.1326L37.2255 85.9185C37.5538 86.0755 37.9963 86.2753 38.5815 86.518C39.1953 86.775 39.6664 86.9605 39.9804 87.0604L39.8948 87.2746C39.6236 87.1746 39.4237 87.1318 39.2953 87.1175C39.1525 87.1175 39.0383 87.1604 38.9527 87.2746C38.8528 87.3745 38.7528 87.5601 38.6386 87.8313L36.3975 93.1842C36.2833 93.4554 36.2262 93.6553 36.212 93.798C36.1977 93.9408 36.2548 94.055 36.3547 94.1549C36.4546 94.2548 36.6259 94.3547 36.8829 94.4832L36.7972 94.6973C36.4975 94.5546 36.0692 94.3547 35.4982 94.1121C35.2127 93.9979 34.913 93.8694 34.5704 93.7267C34.2278 93.5839 33.9994 93.4983 33.8709 93.4412C33.3142 93.1985 32.8717 92.9273 32.5434 92.599C32.2151 92.2707 32.0295 91.9281 31.9439 91.5569C31.8582 91.1858 31.9011 90.8289 32.0581 90.4721C32.1723 90.1866 32.3578 89.9296 32.6148 89.7012C32.8717 89.4728 33.2 89.3015 33.5997 89.2159C33.9994 89.1303 34.4847 89.1445 35.0129 89.273L34.8844 89.2016C34.5847 89.0161 34.3563 88.8305 34.2135 88.6306C34.0708 88.4451 33.9709 88.231 33.9423 88.0026C33.8995 87.7742 33.9138 87.4887 33.9709 87.1461L34.1707 85.9328C34.2135 85.6901 34.2421 85.5045 34.2421 85.3618C34.2421 85.219 34.2278 85.1048 34.185 85.0192C34.1422 84.9335 34.0708 84.8622 33.9709 84.8336C33.8567 84.7765 33.7425 84.7765 33.6426 84.8051C33.5426 84.8336 33.3999 84.905 33.2143 85.0049L33.1001 84.8193C33.3571 84.6623 33.5997 84.5481 33.8138 84.5053ZM34.5276 89.587C34.185 89.6299 33.9138 89.7583 33.6996 89.9724C33.4855 90.1866 33.3 90.4721 33.1429 90.8432C32.9003 91.4285 32.8432 91.9423 33.0002 92.3563C33.1572 92.7703 33.5426 93.1128 34.185 93.3841C34.4134 93.484 34.5847 93.5268 34.7274 93.5125C34.8559 93.5125 34.9701 93.4554 35.07 93.3412C35.1699 93.227 35.2698 93.0415 35.3698 92.7845L36.4832 90.1295L35.7552 89.8297C35.2841 89.6299 34.8702 89.5442 34.5276 89.587Z" fill="#292F36"/>
<path id="Vector_15" d="M22.6797 86.4467C22.8082 86.4895 22.9366 86.4609 23.0508 86.3896C23.165 86.3182 23.322 86.1612 23.5076 85.9328L27.0905 81.3649C27.2761 81.1365 27.3903 80.951 27.4331 80.8225C27.4759 80.694 27.4617 80.5656 27.3903 80.4514C27.3189 80.3372 27.1762 80.1801 26.962 79.9946L27.1048 79.809C27.376 80.0517 27.7471 80.3657 28.2468 80.7511C28.7749 81.1651 29.1746 81.4649 29.4458 81.6504L29.3031 81.836C29.0747 81.6647 28.8891 81.5648 28.7606 81.5362C28.6322 81.4934 28.5037 81.5077 28.3895 81.5933C28.2753 81.6647 28.1183 81.8217 27.9327 82.0501L24.3498 86.618C24.1642 86.8464 24.05 87.0319 24.0072 87.1604C23.9644 87.2889 23.9787 87.4173 24.05 87.5315C24.1214 87.6457 24.2642 87.8027 24.4783 87.9883L24.3355 88.1739C24.0929 87.9598 23.7075 87.6457 23.1793 87.2175C22.6797 86.8321 22.28 86.5323 21.9945 86.3325L22.1373 86.1469C22.3799 86.3039 22.5512 86.4038 22.6797 86.4467Z" fill="#292F36"/>
<path id="Vector_16" d="M13.4584 76.2832C13.4013 75.6409 13.5441 74.9985 13.8724 74.3847C14.215 73.7566 14.7289 73.1999 15.4426 72.6717C16.1421 72.1721 16.8415 71.8438 17.5695 71.7154C18.2975 71.5869 18.9684 71.6297 19.5965 71.8724C20.2246 72.115 20.7527 72.529 21.1667 73.1143C21.6092 73.7138 21.8519 74.3419 21.909 74.9842C21.9661 75.6266 21.8233 76.2689 21.495 76.8827C21.1524 77.5108 20.6385 78.0675 19.9248 78.5957C19.2254 79.0953 18.5259 79.4236 17.7979 79.5521C17.0842 79.6805 16.399 79.6377 15.7709 79.3951C15.1428 79.1524 14.6147 78.7384 14.2007 78.1674C13.7582 77.5536 13.5155 76.9256 13.4584 76.2832ZM15.5996 78.8241C16.0992 78.924 16.6702 78.8812 17.2983 78.6813C17.9264 78.4815 18.5545 78.1532 19.2111 77.6678C19.8677 77.1968 20.3816 76.6829 20.7385 76.1405C21.1096 75.598 21.3094 75.0556 21.338 74.5417C21.3808 74.0278 21.2523 73.571 20.9811 73.1856C20.6814 72.7859 20.2959 72.529 19.7821 72.4291C19.2825 72.3292 18.7115 72.372 18.0834 72.5718C17.4553 72.7717 16.8272 73.1 16.1706 73.571C15.514 74.0421 15.0001 74.556 14.6432 75.1127C14.2721 75.6551 14.0723 76.1833 14.0294 76.7114C13.9866 77.2253 14.1151 77.6821 14.3863 78.0675C14.6861 78.4672 15.0857 78.7242 15.5996 78.8241Z" fill="#292F36"/>
<path id="Vector_17" d="M14.5576 59.0967C14.7288 59.2251 14.8573 59.4392 14.943 59.7247C15.0429 60.0245 15.0286 60.31 14.9144 60.5526C14.8002 60.8096 14.529 61.0523 14.115 61.2949L13.073 61.8802C12.7161 62.0943 12.4449 62.2656 12.2594 62.4083C12.0738 62.5511 11.9453 62.7224 11.8739 62.9222C11.8026 63.1221 11.8026 63.3505 11.8882 63.636L12.2165 64.7065L14.7859 63.9072C15.0714 63.8215 15.257 63.7359 15.3712 63.6502C15.4854 63.5646 15.5425 63.4504 15.5568 63.3219C15.571 63.1934 15.5282 62.9793 15.4569 62.7081L15.6852 62.6367C15.7709 62.9793 15.8994 63.4647 16.0992 64.0642C16.299 64.7065 16.4561 65.1776 16.5703 65.4774L16.3419 65.5487C16.242 65.2775 16.1563 65.092 16.0707 64.992C15.985 64.8921 15.8708 64.8207 15.7281 64.8207C15.5853 64.8207 15.3712 64.8493 15.1 64.9492L9.56147 66.6622C9.27598 66.7478 9.09041 66.8334 8.97621 66.9191C8.86202 67.0047 8.80492 67.1189 8.79064 67.2474C8.77637 67.3902 8.81919 67.59 8.89057 67.8612L8.66217 67.9326C8.5908 67.6185 8.46233 67.1618 8.27676 66.5622C8.19111 66.2767 8.07692 65.9484 7.96272 65.6058C7.84852 65.2632 7.76288 65.0206 7.72005 64.8921C7.53448 64.3069 7.47739 63.793 7.52021 63.3362C7.56303 62.8794 7.70578 62.5083 7.93417 62.2085C8.16256 61.9087 8.46233 61.7089 8.83347 61.5947C9.11896 61.509 9.433 61.4805 9.77559 61.5233C10.1182 61.5661 10.4465 61.7089 10.7891 61.9658C11.1317 62.2228 11.4172 62.5939 11.6598 63.0935L11.6456 62.9508C11.6027 62.5939 11.5885 62.3084 11.6456 62.0658C11.7026 61.8231 11.8026 61.6232 11.9453 61.4519C12.1023 61.2807 12.3307 61.0951 12.6305 60.9238L13.6868 60.2957C13.9009 60.1815 14.0722 60.0673 14.1721 59.9817C14.2721 59.896 14.3577 59.8104 14.4005 59.7247C14.4434 59.6391 14.4434 59.5392 14.4148 59.4392C14.372 59.3108 14.3149 59.2251 14.2292 59.168C14.1436 59.1109 14.0008 59.0396 13.801 58.9682L13.8724 58.7541C14.1579 58.854 14.4005 58.9682 14.5576 59.0967ZM11.1459 62.9222C10.9033 62.6938 10.6178 62.5654 10.318 62.5368C10.0183 62.5083 9.67566 62.5511 9.29025 62.6796C8.67645 62.8651 8.26249 63.1649 8.03409 63.5503C7.8057 63.9357 7.8057 64.4639 8.00554 65.1062C8.07692 65.3346 8.16256 65.5059 8.24821 65.6058C8.33386 65.7058 8.46233 65.7629 8.60507 65.7629C8.74782 65.7629 8.96194 65.72 9.21888 65.6487L11.9596 64.7922L11.7312 64.0356C11.5885 63.5218 11.3886 63.1506 11.1459 62.9222Z" fill="#292F36"/>
<path id="Vector_18" d="M13.4584 45.5501C14.0008 45.3074 14.3291 44.8506 14.4719 44.1655C14.5147 43.9085 14.5147 43.6516 14.4433 43.4089C14.372 43.1662 14.2435 42.9521 14.0436 42.7666C13.8438 42.581 13.5726 42.4525 13.2157 42.3954C12.916 42.3383 12.6447 42.3669 12.3878 42.4668C12.1309 42.5667 11.8739 42.7237 11.6312 42.9379C11.3886 43.152 11.1031 43.4375 10.789 43.7943C10.4322 44.194 10.1181 44.5223 9.84693 44.7507C9.57571 44.9934 9.27594 45.1647 8.94763 45.2932C8.61932 45.4216 8.24818 45.4359 7.83422 45.3645C7.40598 45.2789 7.04912 45.1219 6.79218 44.8649C6.53523 44.608 6.34966 44.3082 6.26402 43.9513C6.17837 43.5945 6.17837 43.2233 6.24974 42.8237C6.29257 42.581 6.34967 42.3954 6.42104 42.2241C6.49241 42.0528 6.56378 41.9244 6.64943 41.8244C6.73508 41.7245 6.82072 41.6103 6.93492 41.4961C7.07767 41.3391 7.14904 41.2249 7.17759 41.1393C7.19186 41.0679 7.16331 41.0108 7.09194 40.9537C7.02057 40.8966 6.8921 40.8538 6.7208 40.7967L6.76363 40.5397C7.20614 40.6539 7.97696 40.8252 9.10465 41.0393L9.06183 41.2963C8.66214 41.2535 8.291 41.2677 7.91986 41.3534C7.563 41.4248 7.24896 41.5818 6.99202 41.8244C6.73508 42.0528 6.56378 42.3811 6.49241 42.7808C6.43531 43.0521 6.44959 43.2947 6.52096 43.5374C6.59233 43.7801 6.7208 43.9656 6.8921 44.1226C7.07767 44.2797 7.29178 44.3796 7.54873 44.4367C7.96269 44.5081 8.31955 44.451 8.61932 44.2511C8.91908 44.0513 9.20457 43.7943 9.47579 43.4946C9.747 43.1948 9.9183 42.995 10.0182 42.895C10.4179 42.4668 10.7462 42.1385 11.0174 41.8958C11.2887 41.6531 11.5884 41.4819 11.9167 41.3677C12.245 41.2535 12.6019 41.2392 12.9873 41.3106C13.4584 41.3962 13.8438 41.5818 14.1293 41.853C14.4148 42.1385 14.6003 42.4668 14.7003 42.8665C14.8002 43.2662 14.8002 43.6944 14.7145 44.1512C14.6432 44.5223 14.5575 44.8078 14.4291 45.0362C14.3149 45.2646 14.1578 45.4644 13.9865 45.65C13.8438 45.807 13.7724 45.9212 13.7439 46.0069C13.7296 46.0783 13.7581 46.1354 13.8295 46.1925C13.9009 46.2495 14.0294 46.3066 14.2007 46.3495L14.1578 46.6064C13.7439 46.4922 12.8303 46.3066 11.4171 46.0497L11.4599 45.7928C12.2593 45.8641 12.916 45.7928 13.4584 45.5501Z" fill="#292F36"/>
<path id="Vector_19" d="M10.6321 33.5166C10.2324 33.3025 9.7756 33.1026 9.26172 32.9028C9.57576 32.3461 10.1039 31.3754 10.8176 29.9908C11.5314 28.6204 12.031 27.6497 12.3022 27.0645C12.7733 27.3642 13.2015 27.6212 13.5869 27.821C13.9295 28.0066 14.2293 28.1351 14.4577 28.235L14.3292 28.4777C13.7582 28.2493 13.33 28.1065 13.0302 28.0637C12.7304 28.0066 12.4592 28.0637 12.2308 28.2064C12.0024 28.3492 11.774 28.6347 11.5599 29.0629L11.2744 29.6339L17.1698 32.7029C17.4553 32.8599 17.6837 32.9313 17.8407 32.9456C17.9977 32.9599 18.1405 32.917 18.269 32.8028C18.3974 32.6887 18.5402 32.4745 18.7115 32.1748L18.9256 32.289C18.7115 32.6458 18.4402 33.1454 18.0977 33.8021C17.7408 34.4872 17.4839 35.0154 17.3268 35.3437L17.1127 35.2295C17.2555 34.9155 17.3554 34.6728 17.3697 34.5158C17.3982 34.3445 17.3554 34.2018 17.2412 34.0733C17.127 33.9448 16.9414 33.8163 16.6559 33.6593L10.7605 30.576L10.4608 31.1327C10.2324 31.561 10.1325 31.9036 10.1467 32.1748C10.161 32.446 10.2752 32.6887 10.4893 32.9028C10.7034 33.1169 11.0603 33.4024 11.5742 33.7307L11.4457 33.9734C11.2602 33.8592 10.9747 33.7021 10.6321 33.5166Z" fill="#292F36"/>
<path id="Vector_20" d="M20.7099 17.1153C20.9525 16.8726 21.1524 16.6442 21.2951 16.4729L21.4664 16.6442C21.3808 16.7727 21.3379 16.9582 21.3522 17.1724C21.3665 17.3865 21.4236 17.6862 21.5378 18.0431L22.8368 21.9115L24.3499 23.4103C24.564 23.6102 24.721 23.7529 24.8495 23.81C24.9779 23.8671 25.1064 23.8671 25.2349 23.81C25.3634 23.7529 25.5204 23.6244 25.7345 23.4389L25.9058 23.6102C25.6346 23.8528 25.2777 24.1954 24.8352 24.6379C24.3641 25.109 24.0216 25.4801 23.8074 25.7228L23.6361 25.5515C23.8217 25.3374 23.9502 25.1804 24.0073 25.0519C24.0644 24.9234 24.0644 24.795 23.993 24.6665C23.9359 24.538 23.7932 24.3667 23.5933 24.1669L22.3372 22.925L17.5695 21.5261C17.284 21.4404 17.0699 21.4119 16.9271 21.4262C16.7844 21.4404 16.6844 21.4833 16.6131 21.5546L16.4418 21.3833C16.6702 21.1835 16.9271 20.9551 17.184 20.6839C17.7122 20.1415 18.0976 19.756 18.3117 19.4991L18.483 19.6704C18.0976 20.0558 18.012 20.3556 18.2261 20.5697C18.3117 20.6553 18.4259 20.7124 18.5972 20.7695L22.6084 22.0114L21.5521 18.8567C21.395 18.4 21.238 18.0859 21.0667 17.9289C20.9097 17.7719 20.7384 17.7291 20.5528 17.7862C20.3673 17.8433 20.1532 17.986 19.8962 18.2287L19.7249 18.0574C20.0675 17.7433 20.3815 17.4293 20.7099 17.1153Z" fill="#292F36"/>
<path id="Vector_21" d="M29.346 11.3626C29.2603 11.4626 29.2175 11.591 29.246 11.7338C29.2746 11.8765 29.346 12.0764 29.4887 12.3333L32.2437 17.4436C32.3864 17.7005 32.5006 17.8718 32.6148 17.9717C32.7148 18.0717 32.8432 18.1002 32.9717 18.0859C33.1002 18.0717 33.3 17.986 33.5427 17.8576L34.2992 17.4436C34.7275 17.2152 35.0272 16.9725 35.1843 16.7299C35.3413 16.4872 35.3984 16.216 35.3555 15.8877C35.3127 15.5594 35.1843 15.1454 34.9559 14.603L35.1985 14.4745C35.2984 14.7029 35.4412 14.9884 35.6268 15.331C35.8409 15.7164 36.0978 16.1446 36.4119 16.6157C35.9408 16.8441 35.1414 17.258 34.0423 17.8576C32.729 18.5713 31.7298 19.1137 31.0732 19.4991L30.959 19.2993C31.2017 19.1565 31.373 19.0281 31.4586 18.9281C31.5442 18.8282 31.5871 18.6997 31.5585 18.557C31.53 18.4143 31.4586 18.2144 31.3159 17.9575L28.5323 12.8472C28.3896 12.5902 28.2754 12.419 28.1612 12.319C28.0613 12.2191 27.9328 12.1906 27.8043 12.2048C27.6616 12.2191 27.476 12.2905 27.2191 12.419L27.1191 12.2048C27.4189 12.0764 27.8614 11.848 28.4467 11.5197C29.0034 11.2199 29.4316 10.9772 29.7314 10.7917L29.8456 10.9915C29.6029 11.1342 29.4459 11.2627 29.346 11.3626Z" fill="#292F36"/>
<path id="Vector_22" d="M46.7323 12.2761C46.818 12.7043 46.9465 13.1897 47.1035 13.7321C46.5753 13.8178 45.7046 13.9748 44.477 14.2174C43.0067 14.5029 41.9075 14.7313 41.151 14.9026L41.1082 14.6742C41.3794 14.6029 41.5792 14.5458 41.6934 14.4601C41.8076 14.3887 41.879 14.2745 41.8933 14.1461C41.9075 14.0033 41.8933 13.7892 41.8362 13.5037L40.7228 7.80817C40.6657 7.52268 40.6086 7.32284 40.5229 7.19437C40.4373 7.0659 40.3516 6.99452 40.2089 6.98025C40.0804 6.9517 39.8663 6.96597 39.5951 7.0088L39.5522 6.78041C40.3088 6.65194 41.4222 6.45209 42.8782 6.1666C44.0059 5.93821 44.8053 5.78119 45.2621 5.66699C45.3049 6.18088 45.3763 6.63766 45.4476 7.03735C45.5047 7.33711 45.5618 7.56551 45.6189 7.7368L45.362 7.7939C45.205 7.30856 45.0622 6.9517 44.9337 6.72331C44.8053 6.49492 44.6197 6.35217 44.4056 6.2808C44.1772 6.20942 43.8774 6.20942 43.4635 6.29507L42.5071 6.48064C42.2359 6.53774 42.036 6.59484 41.9218 6.66621C41.8076 6.73758 41.7363 6.8375 41.7077 6.98025C41.6934 7.12299 41.7077 7.33711 41.7648 7.6226L42.293 10.3348L43.0495 10.1777C43.4349 10.1064 43.6633 9.93508 43.749 9.67814C43.8346 9.4212 43.8632 9.17853 43.8489 8.93586C43.8346 8.69319 43.8203 8.53617 43.8203 8.4648L44.0773 8.4077C44.1201 8.79312 44.1772 9.14998 44.2486 9.49257L44.3628 10.035C44.4341 10.4204 44.5626 10.9628 44.7482 11.648L44.4912 11.7051C44.477 11.648 44.4199 11.4767 44.3199 11.1627C44.22 10.8486 44.0773 10.6345 43.8632 10.5061C43.649 10.3776 43.4064 10.349 43.0923 10.4061L42.3358 10.5489L42.8782 13.3039C42.9353 13.5894 42.9924 13.7892 43.0638 13.9177C43.1352 14.0319 43.2351 14.1032 43.3778 14.1318C43.5063 14.1461 43.7204 14.1318 43.9916 14.0747L44.8338 13.9034C45.3049 13.8035 45.6617 13.675 45.8901 13.5037C46.1185 13.3324 46.247 13.0898 46.3041 12.79C46.3612 12.4902 46.3612 12.062 46.3184 11.5053L46.5753 11.4482C46.6181 11.6623 46.661 11.9335 46.7323 12.2761Z" fill="#292F36"/>
</g>
<g id="Group_3">
<path id="Vector_23" d="M37.1113 66.7905C36.4547 65.9055 35.8837 64.9349 35.3841 63.8643C34.8845 62.7937 34.4848 61.7088 34.185 60.5954C33.5284 55.6992 33.5141 50.9458 34.1279 46.3351C34.7417 41.7245 35.7409 37.1852 37.1113 32.703C37.3397 32.2033 37.8393 31.9607 38.6101 31.9607C39.381 31.9607 40.1375 32.132 40.9083 32.4746C41.6792 32.8172 42.3072 33.2739 42.8068 33.8449C43.3065 34.4159 43.4207 35.0154 43.1494 35.6292C42.7212 36.5428 42.3072 37.7847 41.8933 39.3263C41.4793 40.8823 41.0654 42.5952 40.6942 44.4652C40.3088 46.3351 39.9805 48.305 39.695 50.3463C39.4095 52.3875 39.1954 54.3574 39.0669 56.2274C38.9384 58.0974 38.9099 59.796 38.9813 61.3091C39.0526 62.8222 39.281 64.0213 39.6664 64.892C41.465 62.4796 43.1066 59.9816 44.6054 57.3979C46.1043 54.8142 47.5032 52.202 48.8164 49.5326C50.1297 46.8776 51.3858 44.194 52.5706 41.4675C53.7554 38.7554 54.9259 36.0717 56.0679 33.431C56.6389 32.0891 57.2099 30.676 57.7666 29.1914C58.3233 27.6926 59.0513 26.4222 59.9791 25.3516C60.3645 25.009 60.6643 24.8948 60.8641 25.009C61.0782 25.1232 61.221 25.3373 61.2924 25.6656C61.3637 25.9939 61.4066 26.3365 61.4066 26.6934C61.4066 27.0502 61.4066 27.3357 61.4066 27.5213C61.1353 29.2771 60.907 31.0186 60.7214 32.7458C60.5358 34.473 60.1219 36.1288 59.5223 37.7419C58.5231 40.2685 57.5096 42.7665 56.4533 45.2645C55.397 47.7483 54.2693 50.2035 53.0702 52.6159C51.8712 55.0283 50.5579 57.3694 49.1733 59.639C47.7744 61.9229 46.2613 64.0927 44.6054 66.1482C43.3065 67.7898 42.0075 68.6605 40.737 68.7604C39.4095 68.8746 38.2247 68.2037 37.1113 66.7905Z" fill="#292F36" stroke="white" stroke-miterlimit="10"/>
<path id="Vector_24" d="M60.7499 60.3099C59.9791 59.2393 59.2225 58.1544 58.4802 57.041C57.738 55.9276 57.3668 54.7143 57.3668 53.3725C57.3668 51.8879 57.7951 50.4747 58.6515 49.1472C59.508 47.834 60.4929 46.7634 61.6064 45.964C62.0631 45.6642 62.5342 45.4073 63.0053 45.2217C63.4763 45.0361 63.9902 45.0504 64.5326 45.2788C64.761 45.393 65.0037 45.4787 65.2464 45.5358C65.489 45.5929 65.7174 45.6642 65.903 45.7356C66.0886 45.807 66.3027 45.9212 66.5311 46.0782C66.7595 46.2352 66.8737 46.4351 66.8737 46.7063C66.8737 47.7769 66.9022 48.6476 66.9593 49.3185C67.0164 49.9894 67.102 50.5604 67.2162 51.0457C67.3304 51.5311 67.4446 51.945 67.5588 52.3019C67.673 52.673 67.7872 53.0584 67.9014 53.4724C67.9728 53.8578 67.9585 54.1861 67.8443 54.4431C67.7301 54.7143 67.4446 54.7428 66.9879 54.5573C66.1457 54.2575 65.5176 53.6437 65.1179 52.7158C64.7182 51.788 64.4184 50.9601 64.2329 50.1893C64.19 50.0322 64.1044 49.7753 63.9474 49.3899C63.7904 49.0045 63.7047 48.7333 63.6619 48.5905C63.3621 48.5191 62.991 48.6191 62.577 48.9045C62.1631 49.19 61.7776 49.5897 61.4636 50.0751C61.1353 50.5747 60.9212 51.1456 60.8355 51.8023C60.7356 52.4589 60.8641 53.1013 61.2067 53.7579C61.3637 53.9863 61.5778 54.2718 61.8633 54.5858C62.1488 54.9141 62.4343 55.2424 62.7198 55.585C63.0053 55.9276 63.2907 56.2702 63.5762 56.5842C63.8617 56.8983 64.1044 57.1695 64.29 57.3551C64.5184 57.5835 64.6754 57.7119 64.7467 57.7262C64.8181 57.7405 65.018 57.6977 65.3177 57.5835C65.7031 57.3979 66.2884 57.141 67.0735 56.8412C67.8586 56.5414 68.6865 56.2274 69.543 55.9276C70.3995 55.6279 71.2274 55.3709 72.0125 55.1568C72.7976 54.9427 73.3971 54.8427 73.8254 54.8427C74.0966 54.8427 74.2821 54.9427 74.3963 55.1282C74.5105 55.2424 74.4963 55.3995 74.3392 55.585C74.1822 55.7706 73.9824 55.9704 73.7397 56.156C73.497 56.3416 73.2258 56.5129 72.9689 56.6699C72.6977 56.8269 72.5264 56.9126 72.455 56.9554C71.7984 57.3408 70.9847 57.769 69.9855 58.2544C68.9863 58.7254 68.1298 59.1965 67.4018 59.6533C67.3304 59.7246 67.1877 59.8103 66.9736 59.8817C66.7595 59.953 66.6024 60.0387 66.4882 60.1101C66.945 61.1378 67.2733 62.0371 67.4589 62.7794C67.6445 63.5217 67.7159 64.2354 67.6588 64.9348C67.6017 65.62 67.4589 66.3195 67.2305 67.0332C67.0021 67.7469 66.6881 68.5606 66.3169 69.4741C65.7745 70.3592 65.2321 71.2014 64.6754 72.0007C64.1187 72.8001 63.5049 73.5281 62.8054 74.1847C62.1202 74.8414 61.3637 75.3553 60.5643 75.7264C59.7649 76.1118 58.8799 76.2974 57.9235 76.2974C57.3811 76.2974 56.8672 76.226 56.3676 76.0975C55.868 75.9691 55.454 75.6836 55.1114 75.2696C54.2264 74.3132 53.7411 73.2712 53.6269 72.1435C53.5127 71.0158 53.6126 69.9024 53.9124 68.789C54.1408 68.1038 54.4263 67.4757 54.7688 66.8905C55.611 65.4345 56.5389 64.2068 57.5524 63.1934C58.5801 62.1941 59.6365 61.2235 60.7499 60.3099ZM62.7055 62.8936C62.2773 63.3218 61.7063 63.9214 60.9783 64.7065C60.2503 65.4916 59.5794 66.348 58.937 67.2616C58.3089 68.1752 57.795 69.0887 57.3954 69.988C56.9957 70.8873 56.8958 71.6582 57.0813 72.3148C57.8522 71.9722 58.6372 71.4012 59.4366 70.6161C60.236 69.831 60.9497 68.9745 61.5635 68.0324C62.1773 67.0903 62.6056 66.1625 62.8482 65.2489C63.0909 64.321 63.0481 63.5359 62.7055 62.8936Z" fill="#292F36" stroke="white" stroke-miterlimit="10"/>
</g>
<g id="Group_4">
<path id="Vector_25" d="M51.4429 83.5489C33.5854 83.5489 19.054 69.0174 19.054 51.16C19.054 33.3025 33.5854 18.7711 51.4429 18.7711C69.3003 18.7711 83.8318 33.3025 83.8318 51.16C83.8318 69.0174 69.3003 83.5489 51.4429 83.5489ZM51.4429 20.1985C34.3705 20.1985 20.4814 34.0876 20.4814 51.16C20.4814 68.2323 34.3705 82.1214 51.4429 82.1214C68.5152 82.1214 82.4043 68.2323 82.4043 51.16C82.4043 34.0876 68.5152 20.1985 51.4429 20.1985Z" fill="#292F36"/>
</g>
</g>
</svg>
