<svg width="164" height="44" viewBox="0 0 164 44" fill="none" xmlns="http://www.w3.org/2000/svg">
<g id="03">
<g id="Group">
<path id="Vector" d="M35.3999 43.5479H8.58166C4.17451 43.5479 0.602783 39.9762 0.602783 35.569V8.7508C0.602783 4.34365 4.17451 0.771912 8.58166 0.771912H35.3999C39.8071 0.771912 43.3788 4.34365 43.3788 8.7508V35.569C43.3788 39.9762 39.8071 43.5479 35.3999 43.5479Z" fill="#292F36"/>
</g>
<g id="Group_2">
<path id="Vector_2" d="M29.6972 22.5534C30.46 23.5099 30.8474 24.6238 30.8474 25.883C30.8474 27.7354 30.2299 29.1883 28.995 30.2175C27.76 31.2466 25.9923 31.7794 23.6918 31.7794H13.6426V10.1674H23.4497C25.6533 10.1674 27.3483 10.6517 28.547 11.6082C29.7456 12.5647 30.351 13.9328 30.351 15.7005C30.351 17.0081 29.9999 18.0857 29.3098 18.9575C28.6196 19.8292 27.7116 20.3861 26.5856 20.6525C27.9053 20.9673 28.9344 21.5969 29.6972 22.5534ZM18.8609 19.0059H22.2874C24.1035 19.0059 25.0116 18.231 25.0116 16.6812C25.0116 15.1315 24.0793 14.3566 22.2268 14.3566H18.8609V19.0059ZM25.4959 25.1565C25.4959 24.3816 25.2416 23.7763 24.7331 23.3404C24.2246 22.9045 23.4981 22.6866 22.5658 22.6866H18.873V27.5417H22.6022C24.5273 27.5296 25.4959 26.7426 25.4959 25.1565Z" fill="white"/>
</g>
<g id="Group_3">
<path id="Vector_3" d="M68.163 31.7794L63.4895 23.6189H62.303V31.7794H57.0725V10.1674H65.9958C67.7029 10.1674 69.1559 10.4579 70.3303 11.0512C71.5168 11.6445 72.4007 12.4557 72.9939 13.4848C73.5872 14.514 73.8778 15.6884 73.8778 17.0202C73.8778 18.5942 73.4419 19.9261 72.5823 21.0278C71.7106 22.1296 70.4635 22.8803 68.8047 23.292L73.9383 31.7915H68.163V31.7794ZM62.303 20.0471H65.5357C66.5769 20.0471 67.3397 19.8171 67.824 19.357C68.3083 18.8969 68.5626 18.2189 68.5626 17.3229C68.5626 16.4633 68.3083 15.7974 67.8119 15.301C67.3155 14.8167 66.5527 14.5624 65.5357 14.5624H62.303V20.0471Z" fill="#292F36"/>
<path id="Vector_4" d="M97.5359 27.8444H89.436L88.0921 31.7915H82.5952L90.5136 10.3369H96.531L104.449 31.7915H98.892L97.5359 27.8444ZM96.192 23.861L93.5041 15.9185L90.7799 23.861H96.192Z" fill="#292F36"/>
<path id="Vector_5" d="M133.302 31.7794H128.071L119.33 18.5095V31.7794H114.099V10.1674H119.33L128.071 23.5584V10.1674H133.302V31.7794Z" fill="#292F36"/>
<path id="Vector_6" d="M162.626 26.5731C161.718 28.2077 160.41 29.4911 158.715 30.4112C157.008 31.3314 155.01 31.7915 152.71 31.7915H144.55V10.1795H152.71C155.035 10.1795 157.045 10.6275 158.728 11.5234C160.423 12.4194 161.718 13.6786 162.626 15.3131C163.534 16.9476 163.982 18.8122 163.982 20.9431C163.982 23.0498 163.522 24.9265 162.626 26.5731ZM156.996 25.4835C158.122 24.4059 158.691 22.8803 158.691 20.931C158.691 18.9696 158.122 17.4562 156.996 16.3786C155.87 15.301 154.284 14.7562 152.238 14.7562H149.768V27.1059H152.238C154.284 27.1059 155.87 26.5731 156.996 25.4835Z" fill="#292F36"/>
</g>
</g>
</svg>
