<svg width="146" height="45" viewBox="0 0 146 45" fill="none" xmlns="http://www.w3.org/2000/svg">
<g id="04">
<g id="Group">
<path id="Vector" d="M21.2234 8.95744L22.294 8.72905C22.5652 8.72905 22.7936 8.78615 22.9507 8.90035C23.1077 9.01454 23.1933 9.12874 23.1933 9.22866C23.1933 9.32858 23.1648 9.4856 23.122 9.67117C23.0791 9.85674 22.6794 11.7695 21.9372 15.381C21.1949 18.9924 20.6525 21.6903 20.3099 23.4604C21.9657 21.205 23.9071 18.4357 26.1196 15.1383C28.3322 11.8409 29.6312 9.6569 30.0023 8.57203C30.1165 8.22944 30.2735 7.9725 30.4591 7.78693C30.6446 7.60136 30.8159 7.48717 30.9587 7.45862C31.1014 7.43007 31.3298 7.40152 31.6296 7.40152C31.9294 7.40152 32.2862 7.47289 32.7002 7.60137C33.1141 7.72984 33.3283 7.94395 33.3283 8.25799C33.3283 8.82897 32.4718 10.4991 30.7731 13.2398C29.0744 15.9805 27.1188 18.8925 24.9206 21.9758C22.7223 25.0591 20.8951 27.5001 19.4249 29.2987C19.1679 29.6127 18.8396 29.784 18.4685 29.784C18.0973 29.784 17.6976 29.7126 17.2837 29.5841C16.8697 29.4557 16.6556 29.2273 16.6556 28.8847C16.6556 27.8141 17.5977 22.6467 19.4819 13.4111C17.8689 15.4952 15.9133 18.4072 13.6151 22.1328C11.217 25.987 9.86092 28.3851 9.54688 29.2987C9.37558 29.8554 9.17574 30.1837 8.94735 30.2693C8.79033 30.3407 8.61903 30.3692 8.44773 30.3692L7.2915 30.4977C7.06311 30.4977 6.86326 30.4406 6.66342 30.3121C6.47785 30.1837 6.37793 30.0552 6.37793 29.9125C6.37793 29.5271 6.92037 28.3565 7.99096 26.4152C9.06155 24.4739 10.332 22.3612 11.7737 20.0773C13.2154 17.7934 14.7143 15.5808 16.2845 13.4254C17.8547 11.2699 19.068 9.81392 19.9245 9.08592C20.0958 8.9289 20.2956 8.85752 20.524 8.85752L21.2234 8.95744Z" fill="#292F36"/>
<path id="Vector_2" d="M38.3815 18.6357C39.1238 18.6357 39.4949 18.8926 39.4949 19.3922C39.4949 19.6635 39.4378 19.8633 39.3093 19.9918C39.1809 20.1202 38.9097 20.5342 38.4957 21.2622C38.0817 21.9759 37.6249 22.8895 37.1253 24.0172C36.6257 25.1306 36.2974 26.087 36.1547 26.8721C36.1261 26.972 36.1119 27.1005 36.1119 27.2861C36.1119 27.8285 36.2546 28.0854 36.5544 28.0854C36.8541 28.0854 37.1967 27.9427 37.5964 27.6715C37.9961 27.386 38.3529 27.1005 38.667 26.7722C38.981 26.4581 39.2808 26.1298 39.5806 25.8015C39.8803 25.4732 40.0516 25.2734 40.1087 25.2305C40.1658 25.1877 40.2515 25.1592 40.3657 25.1592C40.5512 25.1592 40.6654 25.3019 40.7083 25.5874C40.7511 25.8729 40.7653 26.1584 40.7653 26.4724C40.7653 26.7865 40.7368 26.9863 40.6797 27.1005C40.3942 27.6572 39.7804 28.3281 38.8097 29.1132C37.8533 29.8983 36.9683 30.2837 36.1832 30.2837C35.3981 30.2837 34.8129 30.041 34.456 29.57C34.0991 29.0989 33.8993 28.5565 33.8993 27.9855C33.8993 27.4003 33.9992 26.9007 34.1991 26.4581C33.3854 27.5145 32.4576 28.3995 31.4155 29.1418C30.3592 29.8698 29.517 30.2409 28.8461 30.2409C28.1752 30.2409 27.6471 30.041 27.2188 29.6414C26.6764 29.1418 26.4194 28.4566 26.4194 27.5716C26.4194 26.6865 26.6193 25.8015 27.019 24.9022C27.4186 24.0172 27.9325 23.1893 28.5749 22.4613C29.2173 21.719 29.931 21.0481 30.7018 20.4486C32.3148 19.1781 33.8136 18.55 35.184 18.55C35.7122 18.55 36.1404 18.6357 36.4687 18.807C36.797 18.9783 37.0112 19.2067 37.0968 19.4636C37.3252 19.1068 37.525 18.8926 37.6963 18.7927C37.8248 18.6785 38.0675 18.6357 38.3815 18.6357ZM36.4402 20.263C34.77 20.263 33.0428 21.1908 31.2585 23.0465C30.6304 23.7174 30.0452 24.5025 29.5027 25.4304C28.9603 26.3582 28.7034 26.9863 28.7034 27.3289C28.7034 27.6715 28.8033 27.8428 29.0031 27.8428C29.2744 27.8428 30.0309 27.3003 31.2871 26.2298C32.5432 25.1592 33.3711 24.3598 33.7708 23.8459C34.2276 23.2749 35.1126 22.0759 36.4402 20.263Z" fill="#292F36"/>
<path id="Vector_3" d="M49.4871 10.8987L50.0867 11.0415C50.1723 11.0415 50.258 11.0843 50.3151 11.17C50.3864 11.2556 50.415 11.3413 50.415 11.4126C50.415 11.484 50.3151 11.6981 50.101 12.0407C49.8868 12.3833 49.6584 12.7687 49.3729 13.1969C49.0875 13.6252 48.9447 13.8678 48.9304 13.9107C49.687 13.8536 50.2294 13.825 50.5435 13.825C50.8575 13.825 51.0716 13.8536 51.2001 13.8964C51.3143 13.9392 51.457 14.0677 51.5998 14.2675C51.7568 14.4674 51.8853 14.6244 52.0137 14.7243C52.1422 14.8242 52.1993 14.9813 52.1993 15.1811C52.1993 15.3809 52.0708 15.5665 51.8282 15.695C51.5855 15.8377 51.3143 15.9234 51.0288 15.9519C48.7591 16.1803 47.5173 16.2945 47.2889 16.3088C46.5038 17.5221 45.3904 19.4064 43.9772 21.9615C42.564 24.5167 41.8074 26.1297 41.7218 26.772C41.679 27.0718 41.6647 27.3002 41.6647 27.4858C41.6647 27.8712 41.8645 28.0567 42.2642 28.0567C42.6639 28.0567 43.1064 27.8997 43.5918 27.6C44.0771 27.2859 44.5339 26.9576 44.9336 26.6007C46.0327 25.6301 46.618 25.1305 46.6893 25.1305C46.9463 25.1305 47.0747 25.573 47.0747 26.4437C47.0747 26.9148 46.8606 27.343 46.4181 27.7284C45.4332 28.5706 44.6053 29.213 43.9343 29.6412C43.2634 30.0694 42.5925 30.2836 41.9074 30.2836C41.7646 30.2836 41.6219 30.2693 41.4934 30.2407C40.7083 30.098 40.1373 29.8125 39.7805 29.3843C39.4093 28.956 39.238 28.385 39.238 27.6713C39.238 26.9576 39.4522 26.0726 39.8804 25.0448C40.3086 24.017 40.8368 22.9179 41.4791 21.7617C42.5354 19.8632 43.5918 18.0931 44.6338 16.4373L44.0771 16.5086C42.9494 16.6371 42.2928 16.6942 42.1072 16.6942H41.9787C41.6933 16.6942 41.422 16.6371 41.1651 16.5229C40.9081 16.4087 40.7654 16.266 40.7654 16.109C40.7654 15.9377 40.8368 15.7806 40.9795 15.6236C41.1223 15.4666 41.2079 15.3381 41.2365 15.2525C41.3078 15.0384 41.5648 14.7957 42.0073 14.5387C42.4498 14.2818 42.7781 14.1391 43.0065 14.1248C43.2349 14.1105 43.449 14.0962 43.6631 14.082C43.8772 14.0677 44.1056 14.0677 44.3626 14.0534C44.6195 14.0391 44.8194 14.0391 44.9621 14.0249L46.2754 13.9678C47.089 12.7402 47.66 11.9408 47.9598 11.5982C48.2738 11.2413 48.4451 11.0558 48.4879 11.0272C48.5308 10.9987 48.6307 10.9701 48.7877 10.9701L49.4871 10.8987Z" fill="#292F36"/>
<path id="Vector_4" d="M58.2658 25.1592C58.4514 25.1592 58.5655 25.3019 58.6084 25.5874C58.6512 25.8729 58.6655 26.1584 58.6655 26.4724C58.6655 26.7865 58.6369 26.9863 58.5798 27.1005C58.2943 27.6429 57.6805 28.3138 56.7241 29.0989C55.7677 29.884 54.8542 30.2837 53.9977 30.2837C53.4695 30.2837 52.9842 30.1267 52.5274 29.8127C52.0849 29.4986 51.8565 28.9419 51.8565 28.1568C51.8565 27.3717 52.0706 26.5866 52.4846 25.8301C50.0579 28.8706 48.1737 30.3837 46.7891 30.3837C46.2466 30.3837 45.8041 30.1838 45.4615 29.7984C45.1189 29.413 44.9619 29.0133 44.9619 28.5851C44.9619 28.1711 45.019 27.7429 45.1332 27.3004C45.2474 26.8578 45.3759 26.4582 45.5044 26.1013C45.6328 25.7444 45.8327 25.3162 46.0896 24.8023C46.3465 24.2884 46.5464 23.9173 46.6606 23.6746C46.7748 23.432 46.9889 23.0894 47.2744 22.6183C47.5599 22.1472 47.9167 21.5049 48.3735 20.7055C48.8303 19.9061 49.2014 19.3066 49.5012 18.9212C49.801 18.5358 50.0865 18.3359 50.372 18.3359C50.6574 18.3359 50.9001 18.4501 51.1142 18.6785C51.3284 18.9069 51.4425 19.1068 51.4425 19.2495C51.4425 19.3923 51.1142 20.0489 50.4576 21.2194C48.5306 24.7167 47.5599 26.7436 47.5599 27.3289C47.5599 27.4716 47.617 27.543 47.7169 27.543C48.1879 27.543 49.3585 26.5295 51.2142 24.5025C53.0699 22.4756 54.1547 21.1766 54.4545 20.6056C54.7542 20.0346 55.0255 19.5493 55.311 19.1639C55.5822 18.7785 55.7963 18.5358 55.939 18.4501C56.353 18.1789 56.8954 18.0362 57.5663 18.0076C57.6805 18.0076 57.7519 18.0076 57.809 18.0219C57.8661 18.0362 57.9375 18.1218 58.0088 18.2646C58.0802 18.4073 58.123 18.5358 58.123 18.6357C58.0374 18.9069 57.652 19.6349 56.9525 20.8197C56.2673 22.0045 55.8819 22.6754 55.8106 22.8181C54.6543 25.202 54.0833 26.7579 54.0833 27.4716C54.0833 27.8856 54.2404 28.0855 54.5544 28.0855C55.1254 28.0141 55.8106 27.5573 56.6099 26.7294C56.9097 26.4296 57.1952 26.1156 57.4807 25.8015C57.7662 25.4875 57.9517 25.3019 58.0088 25.2591C58.0802 25.1877 58.1659 25.1592 58.2658 25.1592Z" fill="#292F36"/>
<path id="Vector_5" d="M62.5054 21.7761C64.8036 19.1638 66.7735 17.8506 68.3865 17.8506C68.7862 17.8506 69.1145 17.9648 69.3715 18.2075C69.6284 18.4501 69.7569 18.7499 69.7569 19.1353C69.7569 19.5207 69.4857 20.1488 68.9432 21.0481C68.4008 21.9331 67.9012 22.6897 67.4444 23.3035C67.2017 23.6175 66.9305 23.7745 66.6165 23.7745C66.3167 23.7745 66.0741 23.6603 65.9028 23.4319C65.7315 23.2035 65.6458 22.9466 65.6458 22.6468C65.6458 21.9759 66.0027 21.2051 66.7307 20.3629L66.7021 20.3344C66.3738 20.3629 65.5887 21.0053 64.304 22.2329C63.0336 23.4748 61.9487 24.5882 61.0494 25.5588C60.1644 26.5438 59.1937 27.7286 58.1374 29.1417C57.8376 29.5557 57.5807 29.7698 57.3666 29.7698C57.1525 29.7698 56.8813 29.6985 56.5387 29.57C56.1961 29.4415 55.982 29.3416 55.9106 29.2845C55.8392 29.2274 55.7964 29.1275 55.7964 28.9847C55.7964 28.8563 55.8392 28.685 55.9106 28.5137C55.982 28.3281 56.139 28.0712 56.3388 27.7428C56.5387 27.4145 56.867 26.8721 57.2952 26.1298C57.7235 25.3875 58.3801 24.2599 59.2794 22.761C60.1787 21.2622 60.7068 20.3486 60.8924 20.0346C61.2635 19.3922 61.5633 18.9212 61.806 18.6357C62.2485 18.079 62.9908 17.8078 64.0328 17.8078C64.2612 17.8078 64.3897 17.9505 64.3897 18.2503C64.3897 18.7071 63.9614 19.5778 63.1192 20.834L62.5054 21.7761Z" fill="#292F36"/>
<path id="Vector_6" d="M78.2503 18.8069C78.2503 19.4493 77.9934 20.0203 77.4652 20.5056C76.9371 20.9909 76.3518 21.2336 75.6809 21.2336C75.4668 21.2336 75.324 21.1765 75.2527 21.0766C75.1813 20.9767 75.1527 20.8339 75.1527 20.6769C75.1527 20.5199 75.167 20.3486 75.2098 20.1916C74.853 20.3058 74.4675 20.4913 74.0393 20.734C73.6111 20.9767 73.0829 21.3335 72.4548 21.8189C71.8268 22.3042 71.5127 22.6468 71.5127 22.8894C71.5127 22.9608 71.6269 23.0036 71.8553 23.0036C72.0837 23.0036 72.4406 22.918 72.9116 22.761C73.3827 22.604 73.7253 22.5183 73.9108 22.5183C74.0964 22.5183 74.2249 22.5326 74.282 22.5469C74.4104 22.6182 74.5389 22.761 74.6959 22.9894C74.8387 23.2178 74.9101 23.4033 74.9101 23.5318C74.9101 23.6603 74.7816 23.8316 74.5247 24.0457C74.2677 24.2598 73.9822 24.4168 73.6682 24.531C73.3399 24.6452 73.1258 24.7309 73.0258 24.788C70.9703 25.9442 69.9425 26.7293 69.9425 27.1575C69.9425 27.9141 70.5849 28.2995 71.8839 28.2995C72.7118 28.2995 73.554 28.0426 74.3819 27.5144C75.0956 27.0719 75.738 26.6151 76.309 26.144C76.88 25.6873 77.2368 25.4018 77.3938 25.2876C77.5509 25.1734 77.6651 25.1305 77.7364 25.1305C77.9934 25.1305 78.1218 25.416 78.1218 25.987C78.1218 26.558 78.0933 26.9291 78.0219 27.1004C77.9505 27.286 77.765 27.5001 77.4367 27.7713C75.3526 29.47 73.3684 30.3265 71.5127 30.3265C70.5135 30.3265 69.7284 30.1837 69.1289 29.9125C68.0297 29.4129 67.4873 28.6564 67.4873 27.6286C67.4873 26.2868 68.4152 25.259 70.2851 24.5738C69.914 24.4025 69.6713 24.2027 69.5714 23.9315C69.4572 23.6745 69.4144 23.2606 69.4144 22.6896C69.4144 22.1186 69.6856 21.5191 70.2137 20.8767C70.7419 20.2344 71.3985 19.7062 72.1694 19.3065C73.8823 18.3787 75.4239 17.9219 76.7658 17.9219C77.0941 17.9219 77.4081 17.9933 77.7507 18.1503C78.0933 18.3073 78.2503 18.5214 78.2503 18.8069Z" fill="#292F36"/>
<path id="Vector_7" d="M111.567 8.87185H111.753C111.81 8.87185 111.853 8.87185 111.867 8.88613C111.881 8.9004 111.895 8.9004 111.924 8.91468C111.952 8.91468 111.967 8.92895 111.995 8.9575C112.038 9.00032 112.109 9.04315 112.195 9.08597C112.309 9.17162 112.366 9.27154 112.366 9.38574C112.366 9.49993 112.252 9.7426 112.024 10.1137C111.795 10.4849 111.21 11.3842 110.254 12.8402C108.07 16.1804 106.114 19.2923 104.387 22.1472C101.404 27.1147 99.8905 29.6128 99.8619 29.6413C99.8334 29.6699 99.8191 29.6984 99.8048 29.7269C99.7905 29.784 99.762 29.8126 99.6906 29.8126L99.4908 29.7698L99.0911 29.8697L98.8627 29.8269L98.62 29.8697H98.5344L97.7207 29.9839C97.2354 29.9839 96.9927 29.8126 96.9927 29.4843C96.9927 29.3415 97.0356 29.1702 97.1212 28.9704C97.421 28.2567 98.9484 25.673 101.689 21.1908C99.8905 21.2336 98.1062 21.2621 96.3504 21.2621L93.21 21.2479C92.6961 22.0758 91.9824 23.2463 91.0831 24.7737C89.1417 28.0997 88.114 29.7698 87.9855 29.7983C87.857 29.8269 87.7571 29.8554 87.6715 29.8554C87.5858 29.8554 87.5145 29.8126 87.4574 29.7127C87.386 29.627 87.3431 29.5699 87.3146 29.5699C87.2861 29.5699 87.2432 29.5842 87.1576 29.627C87.0862 29.6699 86.972 29.6841 86.815 29.6841L86.4724 29.6699L86.3439 29.5842C86.3297 29.5842 86.3154 29.5985 86.3011 29.627C86.2868 29.6556 86.244 29.6699 86.1869 29.6699C85.773 29.6699 85.5588 29.4986 85.5588 29.1417C85.5588 28.9133 85.6445 28.5993 85.8015 28.2139C85.9728 27.8284 86.1869 27.4145 86.4581 26.972C86.7294 26.5295 87.4145 25.4589 88.5422 23.7887C89.6556 22.1186 90.2123 21.2764 90.2123 21.2621C90.0268 21.2479 89.8126 21.2479 89.57 21.2336C89.0704 21.2336 88.7278 21.2193 88.5137 21.1765C87.9569 21.0766 87.5716 20.6198 87.3717 19.8062C87.2575 19.4065 87.2147 19.1495 87.229 19.021C87.229 18.7641 87.3432 18.6214 87.5716 18.6214L87.9569 18.7213C88.1568 18.7356 88.6136 18.7498 89.3559 18.7927C90.0981 18.8355 90.6263 18.8498 90.9546 18.8498L91.7825 18.8212C93.053 16.837 94.5661 14.5817 96.3361 12.0693C95.0514 13.1257 93.624 13.6538 92.0538 13.6538C91.3115 13.6538 90.6691 13.4825 90.141 13.1257C89.5985 12.7688 89.3416 12.312 89.3416 11.7696C89.3416 11.2272 89.5414 10.7989 89.9554 10.4706C90.3694 10.1566 90.7548 9.99954 91.1259 9.99954C91.497 9.99954 91.6826 10.0566 91.6826 10.1708C91.6826 10.2137 91.6255 10.2565 91.5256 10.2993C91.4257 10.3564 91.3686 10.3992 91.3686 10.4421C91.3686 10.5991 91.5399 10.7418 91.8824 10.856C92.225 10.9702 92.6104 11.0416 93.0387 11.0416C93.4669 11.0416 93.9808 10.9131 94.6089 10.6704C95.237 10.4278 95.8793 10.0995 96.5502 9.71405C97.4923 9.17162 98.2346 8.71483 98.7771 8.35797C99.0911 8.20095 99.3766 8.12958 99.6621 8.12958C99.9476 8.12958 100.133 8.15813 100.262 8.2295C100.39 8.2866 100.476 8.35797 100.533 8.41507C100.59 8.47217 100.661 8.55781 100.718 8.65774C100.79 8.75766 100.847 8.84331 100.918 8.88613C100.975 8.94323 101.018 9.00032 101.018 9.0717C101.018 9.14307 100.975 9.24299 100.904 9.40001C100.833 9.54276 100.461 10.1423 99.7906 11.1843C99.1196 12.2264 98.2489 13.5539 97.1926 15.1669C96.1363 16.7799 95.3654 17.9647 94.8801 18.7356C97.4923 18.7356 100.304 18.6927 103.331 18.5928C107.013 12.7831 108.955 9.7426 109.155 9.45711C109.354 9.17162 109.54 8.98605 109.711 8.9004C109.883 8.81476 110.082 8.77193 110.325 8.77193L111.567 8.87185Z" fill="#292F36"/>
<path id="Vector_8" d="M116.335 18.6071C116.635 18.6071 116.934 18.7356 117.234 19.0068C117.548 19.278 117.691 19.6777 117.691 20.2201C117.691 20.7626 117.505 21.462 117.12 22.3328C116.734 23.1892 116.221 24.0742 115.55 24.9735C114.893 25.8586 114.151 26.7008 113.366 27.4859C112.566 28.271 111.71 28.9133 110.796 29.4129C109.868 29.9125 109.04 30.1695 108.284 30.1695C107.527 30.1695 106.928 29.9268 106.471 29.4557C106.014 28.9847 105.786 28.3281 105.786 27.4859C105.786 26.6437 106 25.7015 106.414 24.6881C106.828 23.6603 107.356 22.761 108.013 21.9759C108.669 21.1908 109.369 20.4913 110.14 19.8633C111.724 18.5785 113.123 17.9505 114.322 17.9505C114.864 17.9505 115.264 18.0789 115.535 18.3502C115.635 18.4358 115.678 18.5215 115.678 18.5786V18.6642C115.835 18.6071 116.049 18.6071 116.335 18.6071ZM114.864 20.5484H114.765C114.422 20.5484 114.251 20.3058 114.251 19.8062C113.537 20.0346 112.795 20.4485 112.01 21.0338C111.224 21.619 110.525 22.3185 109.911 23.1179C108.655 24.7166 108.027 26.0727 108.013 27.1718C108.013 27.7143 108.213 27.9855 108.612 27.9855C109.012 27.9855 109.611 27.7143 110.397 27.2004C111.182 26.6865 111.967 25.9299 112.752 24.945C113.523 23.9743 114.108 23.1179 114.493 22.4041C114.879 21.6904 115.079 21.2051 115.079 20.9338C115.064 20.6769 114.993 20.5484 114.864 20.5484Z" fill="#292F36"/>
<path id="Vector_9" d="M117.377 29.8411L116.663 29.8126H116.406C116.306 29.784 116.206 29.7269 116.092 29.6413C115.978 29.5556 115.892 29.4843 115.835 29.4557C115.778 29.4272 115.75 29.3415 115.75 29.2416C115.75 29.1417 115.792 28.9561 115.864 28.7134C117.762 24.531 119.604 21.1765 121.388 18.6784C121.588 18.4072 121.902 18.1931 122.33 18.0504C122.758 17.9076 123.187 17.8362 123.601 17.8362C123.843 17.8362 123.972 18.0218 123.972 18.4072C123.972 18.5214 123.929 18.6642 123.857 18.8355C123.786 19.021 123.586 19.3065 123.272 19.7205C122.958 20.1344 122.587 20.6055 122.159 21.1194C121.731 21.6333 121.488 21.9473 121.431 22.033C122.773 20.6483 123.972 19.6206 125.057 18.9354C126.141 18.2645 126.912 17.9219 127.398 17.9219C127.883 17.9219 128.254 18.0646 128.511 18.3358C128.768 18.6071 128.896 18.9068 128.896 19.2209C128.896 19.5349 128.868 19.8061 128.825 20.006C128.782 20.2201 128.697 20.4342 128.582 20.6626C128.468 20.891 128.368 21.0908 128.283 21.2479C128.197 21.4049 128.054 21.619 127.869 21.8759C127.669 22.1329 127.54 22.3184 127.469 22.4184C127.398 22.5183 127.241 22.7039 127.012 22.9751C126.784 23.2463 126.655 23.4033 126.641 23.4319C126.912 23.1606 127.298 22.761 127.783 22.2185C128.268 21.6761 128.682 21.2336 129.025 20.8767C129.367 20.5199 129.781 20.1059 130.295 19.6491C130.809 19.1923 131.28 18.8212 131.708 18.55C132.765 17.8933 133.835 17.5508 134.92 17.5508C135.291 17.5508 135.605 17.6649 135.862 17.9076C136.119 18.1503 136.248 18.4215 136.248 18.7498C136.248 19.0781 135.848 19.8632 135.063 21.0908C134.278 22.3184 133.478 23.5603 132.693 24.8022C131.908 26.0441 131.509 26.8292 131.509 27.1575C131.509 27.6 131.594 27.8712 131.751 27.9569C131.923 28.0425 132.122 28.0711 132.351 28.0568C132.579 28.0425 132.922 27.8855 133.336 27.6C133.764 27.3145 134.135 27.029 134.463 26.715C135.006 26.2297 135.491 25.7586 135.962 25.3018C136.062 25.2162 136.162 25.1734 136.291 25.1734C136.476 25.1734 136.59 25.3161 136.633 25.6016C136.676 25.8871 136.69 26.1726 136.69 26.4866C136.69 26.8006 136.662 27.0005 136.605 27.1147C136.319 27.6571 135.691 28.328 134.735 29.1274C133.764 29.9125 132.836 30.3122 131.951 30.3122C131.837 30.3122 131.766 30.3122 131.723 30.2979C130.724 30.198 130.024 29.9268 129.639 29.47C129.253 29.0132 129.068 28.4708 129.068 27.857C129.068 27.2432 129.282 26.4723 129.71 25.5873C130.138 24.7023 130.595 23.8886 131.109 23.1749C131.623 22.4612 132.08 21.8046 132.508 21.2193C132.936 20.634 133.15 20.32 133.15 20.2772C133.15 20.2344 133.107 20.2058 133.036 20.2058C132.736 20.2058 132.065 20.6911 131.009 21.6761C129.225 23.3462 127.683 24.9592 126.384 26.5009C126.041 26.9148 125.228 27.9426 123.957 29.6127C123.815 29.8126 123.572 29.9125 123.258 29.9125C122.944 29.9125 122.616 29.8554 122.273 29.7269C121.93 29.5985 121.759 29.4414 121.759 29.2559C121.759 29.1559 122.53 27.7856 124.086 25.1448C125.642 22.504 126.413 21.0623 126.413 20.8339C126.413 20.5912 126.27 20.477 125.984 20.477C125.699 20.477 125.099 20.9053 124.2 21.7617C121.731 24.117 119.818 26.4723 118.462 28.7991C118.376 28.9418 118.205 29.156 117.948 29.4414C117.691 29.7269 117.462 29.8411 117.377 29.8411Z" fill="#292F36"/>
<path id="Vector_10" d="M145.683 18.8069C145.683 19.4493 145.426 20.0203 144.898 20.5056C144.37 20.9909 143.785 21.2336 143.114 21.2336C142.9 21.2336 142.757 21.1765 142.686 21.0766C142.614 20.9767 142.586 20.8339 142.586 20.6769C142.586 20.5199 142.6 20.3486 142.643 20.1916C142.286 20.3058 141.9 20.4913 141.472 20.734C141.044 20.9767 140.516 21.3335 139.888 21.8189C139.26 22.3042 138.946 22.6468 138.946 22.8894C138.946 22.9608 139.06 23.0036 139.288 23.0036C139.517 23.0036 139.873 22.918 140.344 22.761C140.816 22.604 141.158 22.5183 141.344 22.5183C141.529 22.5183 141.658 22.5326 141.715 22.5469C141.843 22.6182 141.972 22.761 142.129 22.9894C142.272 23.2178 142.343 23.4033 142.343 23.5318C142.343 23.6603 142.214 23.8316 141.958 24.0457C141.701 24.2598 141.415 24.4168 141.101 24.531C140.773 24.6452 140.559 24.7309 140.459 24.788C138.403 25.9442 137.375 26.7293 137.375 27.1575C137.375 27.9141 138.018 28.2995 139.317 28.2995C140.145 28.2995 140.987 28.0426 141.815 27.5144C142.528 27.0719 143.171 26.6151 143.742 26.144C144.313 25.6873 144.67 25.4018 144.827 25.2876C144.984 25.1734 145.098 25.1305 145.169 25.1305C145.426 25.1305 145.555 25.416 145.555 25.987C145.555 26.558 145.526 26.9291 145.455 27.1004C145.383 27.286 145.198 27.5001 144.87 27.7713C142.785 29.47 140.801 30.3265 138.946 30.3265C137.946 30.3265 137.161 30.1837 136.562 29.9125C135.463 29.4129 134.92 28.6564 134.92 27.6286C134.92 26.2868 135.848 25.259 137.718 24.5738C137.347 24.4025 137.104 24.2027 137.004 23.9315C136.89 23.6745 136.847 23.2606 136.847 22.6896C136.847 22.1186 137.118 21.5191 137.647 20.8767C138.175 20.2344 138.831 19.7062 139.602 19.3065C141.315 18.3787 142.857 17.9219 144.199 17.9219C144.527 17.9219 144.841 17.9933 145.184 18.1503C145.526 18.3073 145.683 18.5214 145.683 18.8069Z" fill="#292F36"/>
</g>
<g id="Group_2">
<path id="Vector_11" d="M0.982178 33.7952C4.73638 35.3654 8.56195 36.5787 12.4589 37.5066C16.3273 38.4772 20.2671 39.1624 24.2069 39.5906C26.1767 39.8618 28.1609 39.8904 30.1165 40.076C32.1007 40.0902 34.0705 40.2473 36.0404 40.1331L38.9953 40.0617C39.9802 40.0474 40.9651 39.919 41.9501 39.8619C42.935 39.7762 43.92 39.7334 44.8906 39.6049L47.8169 39.1909C51.7424 38.7627 55.5537 37.8491 59.3507 36.75C63.1906 35.6937 66.8163 34.2948 70.6562 32.8388C74.5817 31.397 78.8355 30.4549 83.1464 30.9117C85.2733 31.1829 87.4145 31.8681 89.156 33.1243C90.9118 34.3662 92.1679 36.1362 92.9673 37.9919C91.7682 36.336 90.2694 34.98 88.5422 34.1378C86.8149 33.2956 84.9164 32.953 83.0322 33.0101C79.2209 33.0672 75.4667 34.3376 71.9409 35.9364C68.358 37.7064 64.4753 39.3051 60.5641 40.6327C56.6243 41.9031 52.5561 42.9166 48.4307 43.4305C40.2229 44.5154 31.8152 44.5296 23.7072 42.8881C19.639 42.1458 15.6707 40.9895 11.8308 39.5193C8.01951 37.9919 4.29387 36.2076 0.982178 33.7952Z" fill="#292F36"/>
</g>
<g id="Group_3">
<path id="Vector_12" d="M137.49 10.0281C134.306 8.67201 131.066 7.61569 127.783 6.78777C124.514 5.91702 121.202 5.30322 117.876 4.87499C116.221 4.61804 114.536 4.56094 112.88 4.3611C111.21 4.31828 109.554 4.14698 107.884 4.21836C107.056 4.23263 106.214 4.23263 105.386 4.21836C104.558 4.21836 103.716 4.304 102.888 4.33255C102.06 4.38965 101.218 4.40392 100.39 4.48957L97.9063 4.78934C94.5804 5.06055 91.3543 5.74573 88.1283 6.58793C84.8594 7.37303 81.7619 8.48644 78.4644 9.59986C75.0814 10.7275 71.4128 11.4127 67.73 10.8988C65.9171 10.5991 64.09 9.95672 62.6482 8.81475C61.178 7.68707 60.1787 6.14542 59.5649 4.53239C60.5784 5.94557 61.8346 7.10181 63.2763 7.81554C64.7181 8.52927 66.3025 8.82903 67.887 8.81475C71.0845 8.81475 74.2534 7.78699 77.2511 6.50228C80.3058 5.04628 83.6604 3.76157 87.0006 2.70526C90.3694 1.69176 93.8809 0.920938 97.3925 0.5498C104.401 -0.192476 111.567 -0.0211817 118.433 1.60612C121.873 2.33412 125.228 3.44753 128.44 4.81789C131.666 6.21679 134.777 7.84409 137.49 10.0281Z" fill="#292F36"/>
</g>
</g>
</svg>
