<svg width="118" height="48" viewBox="0 0 118 48" fill="none" xmlns="http://www.w3.org/2000/svg">
<g id="05">
<g id="Group">
<path id="Vector" d="M0.683105 29.7841V0.5784H17.8839V29.7698H0.683105V29.7841ZM15.7999 22.9894L16.2424 19.7634L14.6436 19.6064L14.1583 22.0901C13.1591 22.5897 11.9314 22.8324 10.4612 22.8324C8.46274 22.8324 6.87825 22.2043 5.72201 20.9339C4.5515 19.6635 3.98052 17.9933 3.98052 15.9093C3.98052 13.8823 4.5515 12.2121 5.67919 10.8989C6.80688 9.58563 8.29147 8.929 10.1329 8.929C11.075 8.929 11.8744 9.0432 12.5167 9.25732C13.1591 9.47143 13.7443 9.75693 14.301 10.1281L14.7721 12.5833L16.3994 12.4263L15.9283 9.20022C15.2432 8.61496 14.4295 8.1439 13.4874 7.77277C12.5452 7.4159 11.3748 7.23033 9.99013 7.23033C8.34856 7.23033 6.93538 7.63002 5.75059 8.44367C4.56581 9.25732 3.63796 10.3279 2.98133 11.6554C2.3247 12.9972 1.99638 14.439 1.99638 15.9806C1.99638 18.4216 2.75293 20.4628 4.26603 22.0901C5.77913 23.7174 7.74901 24.5311 10.19 24.5311C12.5881 24.5311 14.4581 24.0172 15.7999 22.9894Z" fill="#292F36"/>
<path id="Vector_2" d="M23.7222 29.7841V0.5784H31.1164V29.7698H23.7222V29.7841ZM24.5072 24.2741H30.3455V22.8039H28.3329V6.50233H24.4787V7.97261H26.52V22.8039H24.5072V24.2741Z" fill="#292F36"/>
<path id="Vector_3" d="M36.9548 29.7841V0.5784H49.9447V29.7698H36.9548V29.7841ZM39.3101 13.6539L38.8962 16.3089L40.395 16.4945L40.8375 14.5103C41.4799 14.1963 42.2079 14.0393 43.0643 14.0393C44.0921 14.0393 44.7916 14.2962 45.1484 14.8101C45.5053 15.324 45.6766 15.9949 45.6766 16.8228V17.8506C45.3626 17.822 45.0342 17.7935 44.6774 17.7792C44.3205 17.7649 43.9779 17.7507 43.6353 17.7507C42.3506 17.7507 41.123 17.9791 39.981 18.4358C38.8391 18.8926 38.2681 19.849 38.2681 21.2908C38.2681 22.5184 38.6535 23.3606 39.4386 23.8173C40.2237 24.2884 40.9946 24.5168 41.7511 24.5168C42.6789 24.5168 43.4783 24.2741 44.1349 23.7888C44.7916 23.3035 45.3055 22.761 45.6766 22.1329V22.19C45.7051 23.746 46.4046 24.5168 47.775 24.5168C48.3031 24.5168 48.8027 24.3883 49.2738 24.1314L49.2452 22.9466C49.0168 23.0465 48.7599 23.1036 48.4744 23.1036C47.8178 23.1036 47.4894 22.6897 47.4894 21.8617V16.3946C47.4894 13.8252 46.1191 12.5405 43.3784 12.5405C42.6218 12.5405 41.9081 12.6261 41.2372 12.7974C40.552 12.983 39.9097 13.2685 39.3101 13.6539ZM45.6623 19.9632C45.5909 20.9053 45.2055 21.6619 44.5061 22.2043C43.8066 22.761 43.0643 23.0322 42.265 23.0322C41.7654 23.0322 41.28 22.8895 40.8233 22.6183C40.3522 22.3471 40.1238 21.8332 40.1238 21.0909C40.1238 20.1916 40.4807 19.6206 41.1658 19.3494C41.8653 19.0782 42.6361 18.9497 43.5068 18.9497C43.8923 18.9497 44.2634 18.964 44.6203 19.0068C44.9771 19.0354 45.334 19.0639 45.648 19.0782V19.9632H45.6623Z" fill="#292F36"/>
<path id="Vector_4" d="M55.7971 29.7841V0.5784H67.6021V29.7698H55.7971V29.7841ZM66.3603 20.9482C66.3603 20.0346 66.1176 19.3637 65.6323 18.9212C65.1469 18.4787 64.5617 18.1789 63.8479 18.0076C63.1342 17.8363 62.4348 17.6936 61.7353 17.5794C61.0359 17.4652 60.4363 17.2796 59.951 17.0369C59.4657 16.7943 59.223 16.366 59.223 15.7522C59.223 15.167 59.4514 14.7387 59.9224 14.4532C60.3935 14.1678 60.9788 14.0393 61.7068 14.0393C62.549 14.0393 63.3341 14.2249 64.0621 14.6103L64.3476 16.466L65.8464 16.2804L65.5609 13.5968C65.0756 13.297 64.4903 13.0543 63.7909 12.8545C63.0914 12.6547 62.3491 12.5405 61.5498 12.5405C60.4934 12.5405 59.5228 12.7974 58.6235 13.297C57.7242 13.7966 57.2817 14.6531 57.2817 15.8807C57.2817 16.78 57.5243 17.4366 58.0097 17.8506C58.495 18.2788 59.0945 18.5643 59.8225 18.7356C60.5505 18.9069 61.2642 19.0496 61.978 19.1781C62.6917 19.2923 63.2912 19.4922 63.7766 19.7491C64.2619 20.006 64.5046 20.4486 64.5046 21.0909C64.5046 21.7475 64.1905 22.2329 63.5624 22.5469C62.9343 22.861 62.2206 23.018 61.407 23.018C60.4934 23.018 59.6369 22.8324 58.8518 22.447L58.9232 20.9196L57.4815 20.7626L57.1246 23.3748C57.6242 23.7031 58.2809 23.9744 59.0802 24.1885C59.8796 24.4026 60.679 24.5168 61.4926 24.5168C62.8773 24.5168 64.0335 24.2028 64.9614 23.5604C65.8892 22.9466 66.3603 22.0616 66.3603 20.9482Z" fill="#292F36"/>
<path id="Vector_5" d="M73.4404 29.7841V0.5784H85.2454V29.7698H73.4404V29.7841ZM84.0035 20.9482C84.0035 20.0346 83.7609 19.3637 83.2755 18.9212C82.7902 18.4787 82.2049 18.1789 81.4912 18.0076C80.7775 17.8363 80.0781 17.6936 79.3786 17.5794C78.6791 17.4652 78.0796 17.2796 77.5943 17.0369C77.1089 16.7943 76.8663 16.366 76.8663 15.7522C76.8663 15.167 77.0946 14.7387 77.5657 14.4532C78.0368 14.1678 78.622 14.0393 79.35 14.0393C80.1922 14.0393 80.9774 14.2249 81.7054 14.6103L81.9909 16.466L83.4897 16.2804L83.2042 13.5968C82.7188 13.297 82.1336 13.0543 81.4341 12.8545C80.7347 12.6547 79.9924 12.5405 79.193 12.5405C78.1367 12.5405 77.1661 12.7974 76.2668 13.297C75.3675 13.7966 74.925 14.6531 74.925 15.8807C74.925 16.78 75.1676 17.4366 75.653 17.8506C76.1383 18.2788 76.7379 18.5643 77.4659 18.7356C78.1939 18.9069 78.9075 19.0496 79.6212 19.1781C80.335 19.2923 80.9345 19.4922 81.4198 19.7491C81.9052 20.006 82.1479 20.4486 82.1479 21.0909C82.1479 21.7475 81.8339 22.2329 81.2058 22.5469C80.5777 22.861 79.864 23.018 79.0503 23.018C78.1367 23.018 77.2802 22.8324 76.4951 22.447L76.5666 20.9196L75.1248 20.7626L74.768 23.3748C75.2676 23.7031 75.9242 23.9744 76.7236 24.1885C77.5229 24.4026 78.3223 24.5168 79.136 24.5168C80.5206 24.5168 81.6768 24.2028 82.6047 23.5604C83.5325 22.9466 84.0035 22.0616 84.0035 20.9482Z" fill="#292F36"/>
<path id="Vector_6" d="M91.0837 29.7841V0.5784H98.8634V29.7698H91.0837V29.7841ZM92.2257 24.2741H98.064V22.8039H96.0513V12.7831H92.1829V14.2534H94.2526V22.8039H92.24V24.2741H92.2257ZM94.0529 7.45873V9.81403H96.0228V7.45873H94.0529Z" fill="#292F36"/>
<path id="Vector_7" d="M104.702 29.7841V0.5784H117.135V29.7698H104.702V29.7841ZM116.021 20.4057L114.465 20.0631C114.123 22.0045 113.081 22.9751 111.368 22.9751C110.226 22.9751 109.355 22.5897 108.756 21.8189C108.156 21.0481 107.856 19.9632 107.856 18.5929C107.856 17.351 108.128 16.2947 108.656 15.4096C109.184 14.5246 110.069 14.0964 111.296 14.0964C112.239 14.0964 113.067 14.3105 113.752 14.7387L114.194 16.6801L115.693 16.4945L115.251 13.7252C114.665 13.2827 114.052 12.9687 113.409 12.7974C112.767 12.6261 112.067 12.5405 111.311 12.5405C109.526 12.5405 108.17 13.1685 107.285 14.4247C106.386 15.6809 105.944 17.1083 105.944 18.6928C105.944 20.5342 106.415 21.9759 107.371 22.9894C108.313 24.0172 109.584 24.5311 111.168 24.5311C112.753 24.5311 113.923 24.0886 114.665 23.2178C115.408 22.3328 115.864 21.4049 116.021 20.4057Z" fill="#292F36"/>
</g>
<g id="Group_2">
<path id="Vector_8" d="M8.12019 45.7287C7.79187 46.3282 7.30652 46.7993 6.67844 47.1276C6.03609 47.4559 5.27953 47.6272 4.39451 47.6272H1.83936V39.5764H4.39451C5.27953 39.5764 6.05036 39.7334 6.67844 40.0617C7.30652 40.39 7.79187 40.8468 8.12019 41.4606C8.4485 42.0744 8.60552 42.7739 8.60552 43.6018C8.60552 44.4154 8.4485 45.1292 8.12019 45.7287ZM6.70698 45.8857C7.26368 45.3433 7.53492 44.5867 7.53492 43.6018C7.53492 42.6168 7.26368 41.8603 6.70698 41.3179C6.15027 40.7754 5.35089 40.5042 4.29458 40.5042H2.85288V46.6994H4.29458C5.35089 46.6994 6.15027 46.4281 6.70698 45.8857Z" fill="#292F36"/>
<path id="Vector_9" d="M13.9014 40.4186V43.1736H16.9562V43.9729H13.9014V46.785H17.2988V47.6272H12.8594V39.5764H17.2988V40.4186H13.9014Z" fill="#292F36"/>
<path id="Vector_10" d="M26.3203 46.5995C26.1347 46.9278 25.8634 47.1991 25.4923 47.3989C25.1212 47.5988 24.6644 47.7129 24.1077 47.7129C23.5795 47.7129 23.0942 47.613 22.6802 47.4275C22.2663 47.2276 21.938 46.9707 21.681 46.6281C21.4384 46.2855 21.2956 45.9001 21.2528 45.4718H22.3662C22.3947 45.7002 22.4661 45.9286 22.5946 46.1427C22.7231 46.3569 22.9229 46.5424 23.1656 46.6852C23.4082 46.8279 23.708 46.8993 24.0649 46.8993C24.5216 46.8993 24.8785 46.7851 25.1212 46.5282C25.3639 46.2712 25.4923 45.9715 25.4923 45.586C25.4923 45.2577 25.4067 44.9865 25.2354 44.7867C25.0641 44.5868 24.85 44.4155 24.6073 44.3013C24.3646 44.1871 24.0078 44.0587 23.5795 43.9159C23.0656 43.7446 22.666 43.5876 22.3519 43.4449C22.0379 43.3021 21.7809 43.0737 21.5668 42.774C21.3527 42.4742 21.2385 42.0888 21.2385 41.6034C21.2385 41.1895 21.3384 40.8183 21.5383 40.49C21.7381 40.176 22.0236 39.9191 22.409 39.7478C22.7801 39.5765 23.237 39.4908 23.7366 39.4908C24.5217 39.4908 25.164 39.6764 25.6208 40.0618C26.0918 40.4472 26.3488 40.9325 26.4344 41.5321H25.321C25.2639 41.218 25.0926 40.9325 24.8357 40.6899C24.5645 40.4472 24.2076 40.3187 23.7508 40.3187C23.3369 40.3187 22.9943 40.4329 22.7516 40.6471C22.4947 40.8612 22.3805 41.1752 22.3805 41.5606C22.3805 41.8747 22.4661 42.1316 22.6232 42.3172C22.7945 42.517 22.9943 42.6598 23.237 42.774C23.4796 42.8882 23.8222 43.0024 24.2361 43.1451C24.75 43.3164 25.164 43.4734 25.4923 43.6304C25.8063 43.7875 26.0776 44.0158 26.2917 44.3156C26.5058 44.6154 26.62 45.0293 26.62 45.5432C26.5915 45.9144 26.5058 46.2712 26.3203 46.5995Z" fill="#292F36"/>
<path id="Vector_11" d="M31.8873 39.5764V47.6272H30.8452V39.5764H31.8873Z" fill="#292F36"/>
<path id="Vector_12" d="M42.4218 40.1903C43.0642 40.6613 43.4924 41.2894 43.7065 42.0888H42.6074C42.4218 41.6034 42.0935 41.2037 41.651 40.9183C41.2084 40.6185 40.6803 40.4757 40.0665 40.4757C39.5241 40.4757 39.0244 40.6042 38.5962 40.8612C38.168 41.1181 37.8254 41.475 37.5685 41.946C37.3258 42.4171 37.1973 42.9738 37.1973 43.6161C37.1973 44.2728 37.3258 44.8438 37.5685 45.3148C37.8111 45.7859 38.168 46.157 38.6105 46.4139C39.053 46.6709 39.5669 46.7994 40.1522 46.7994C40.6518 46.7994 41.0942 46.6852 41.5082 46.4853C41.9222 46.2712 42.2505 45.9572 42.5217 45.5575C42.7929 45.1578 42.9357 44.6725 42.9928 44.13H39.8238V43.3592H43.8635V44.3156C43.7921 44.9579 43.5923 45.5289 43.264 46.0571C42.9357 46.5852 42.4932 46.9849 41.9365 47.2847C41.3798 47.5845 40.7517 47.7415 40.0379 47.7415C39.2671 47.7415 38.5819 47.5702 37.9824 47.2276C37.3829 46.885 36.9261 46.3997 36.5978 45.7716C36.2694 45.1578 36.0981 44.4441 36.0981 43.6447C36.0981 42.8453 36.2694 42.1316 36.5978 41.5178C36.9261 40.904 37.3971 40.4044 37.9824 40.0618C38.5676 39.7192 39.2528 39.5336 40.0236 39.5336C40.9943 39.5051 41.7794 39.7335 42.4218 40.1903Z" fill="#292F36"/>
<path id="Vector_13" d="M54.3983 47.6272H53.3563L49.1738 41.2608V47.6272H48.1318V39.5764H49.1738L53.3563 45.9428V39.5764H54.3983V47.6272Z" fill="#292F36"/>
<path id="Vector_14" d="M69.415 46.5995C69.2294 46.9278 68.9582 47.1991 68.587 47.3989C68.2159 47.5988 67.7592 47.7129 67.2024 47.7129C66.6743 47.7129 66.189 47.613 65.775 47.4275C65.361 47.2276 65.0327 46.9707 64.7758 46.6281C64.5331 46.2855 64.3904 45.9001 64.3475 45.4718H65.4609C65.4895 45.7002 65.5609 45.9286 65.6894 46.1427C65.8178 46.3569 66.0176 46.5424 66.2603 46.6852C66.5029 46.8279 66.8027 46.8993 67.1596 46.8993C67.6164 46.8993 67.9732 46.7851 68.2159 46.5282C68.4586 46.2712 68.587 45.9715 68.587 45.586C68.587 45.2577 68.5014 44.9865 68.3301 44.7867C68.1588 44.5868 67.9447 44.4155 67.702 44.3013C67.4594 44.1871 67.1025 44.0587 66.6743 43.9159C66.1604 43.7446 65.7607 43.5876 65.4466 43.4449C65.1326 43.3021 64.8757 43.0737 64.6615 42.774C64.4474 42.4742 64.3333 42.0888 64.3333 41.6034C64.3333 41.1895 64.4331 40.8183 64.633 40.49C64.8328 40.176 65.1184 39.9191 65.5038 39.7478C65.8749 39.5765 66.3317 39.4908 66.8313 39.4908C67.6164 39.4908 68.2588 39.6764 68.7155 40.0618C69.1866 40.4472 69.4436 40.9325 69.5292 41.5321H68.4157C68.3586 41.218 68.1873 40.9325 67.9304 40.6899C67.6592 40.4472 67.3024 40.3187 66.8456 40.3187C66.4316 40.3187 66.089 40.4329 65.8463 40.6471C65.5894 40.8612 65.4752 41.1752 65.4752 41.5606C65.4752 41.8747 65.5608 42.1316 65.7178 42.3172C65.8891 42.517 66.089 42.6598 66.3316 42.774C66.5743 42.8882 66.9169 43.0024 67.3309 43.1451C67.8448 43.3164 68.2587 43.4734 68.587 43.6304C68.9011 43.7875 69.1723 44.0158 69.3864 44.3156C69.6005 44.6154 69.7147 45.0293 69.7147 45.5432C69.6861 45.9144 69.6006 46.2712 69.415 46.5995Z" fill="#292F36"/>
<path id="Vector_15" d="M78.8791 39.5764V40.4186H76.6094V47.6272H75.5531V40.4186H73.2834V39.5764H78.8791Z" fill="#292F36"/>
<path id="Vector_16" d="M83.7324 39.5764V44.4012C83.7324 45.1863 83.9037 45.7715 84.2606 46.1569C84.6174 46.5281 85.0885 46.7279 85.7166 46.7279C86.3304 46.7279 86.8015 46.5423 87.1441 46.1569C87.4867 45.7715 87.6579 45.2005 87.6579 44.4154V39.5906H88.7V44.4154C88.7 45.5146 88.4288 46.3425 87.8864 46.8849C87.3439 47.4416 86.6159 47.7129 85.7023 47.7129C84.803 47.7129 84.0751 47.4416 83.5327 46.8849C82.9902 46.3282 82.719 45.5146 82.719 44.4154V39.5906H83.7324V39.5764Z" fill="#292F36"/>
<path id="Vector_17" d="M99.4487 45.7287C99.1204 46.3282 98.635 46.7993 98.007 47.1276C97.3646 47.4559 96.6081 47.6272 95.7231 47.6272H93.168V39.5764H95.7231C96.6081 39.5764 97.3789 39.7334 98.007 40.0617C98.635 40.39 99.1204 40.8468 99.4487 41.4606C99.777 42.0744 99.9341 42.7739 99.9341 43.6018C99.9341 44.4154 99.777 45.1292 99.4487 45.7287ZM98.0498 45.8857C98.6065 45.3433 98.8778 44.5867 98.8778 43.6018C98.8778 42.6168 98.6065 41.8603 98.0498 41.3179C97.4931 40.7754 96.6938 40.5042 95.6374 40.5042H94.1957V46.6994H95.6374C96.6795 46.6994 97.4931 46.4281 98.0498 45.8857Z" fill="#292F36"/>
<path id="Vector_18" d="M105.244 39.5764V47.6272H104.202V39.5764H105.244Z" fill="#292F36"/>
<path id="Vector_19" d="M115.465 40.0047C116.064 40.3616 116.535 40.8469 116.878 41.475C117.22 42.103 117.392 42.8168 117.392 43.6019C117.392 44.387 117.22 45.1007 116.878 45.7288C116.535 46.3569 116.064 46.8422 115.465 47.1991C114.865 47.5559 114.194 47.7272 113.452 47.7272C112.71 47.7272 112.024 47.5559 111.425 47.1991C110.825 46.8422 110.34 46.3569 109.998 45.7288C109.655 45.1007 109.484 44.387 109.484 43.6019C109.484 42.8168 109.655 42.103 109.998 41.475C110.34 40.8469 110.811 40.3616 111.425 40.0047C112.039 39.6478 112.71 39.4765 113.452 39.4765C114.194 39.4765 114.865 39.6478 115.465 40.0047ZM111.953 40.8326C111.511 41.0896 111.168 41.4464 110.925 41.9317C110.683 42.4028 110.554 42.9595 110.554 43.6019C110.554 44.23 110.683 44.7867 110.925 45.272C111.168 45.7573 111.511 46.1142 111.953 46.3711C112.396 46.6281 112.881 46.7565 113.438 46.7565C113.98 46.7565 114.48 46.6281 114.922 46.3711C115.365 46.1142 115.707 45.7431 115.95 45.272C116.193 44.8009 116.321 44.2442 116.321 43.6161C116.321 42.9738 116.193 42.4171 115.95 41.946C115.707 41.475 115.365 41.1038 114.922 40.8469C114.48 40.5899 113.994 40.4615 113.438 40.4615C112.895 40.4472 112.396 40.5757 111.953 40.8326Z" fill="#292F36"/>
</g>
</g>
</svg>
